<svg xmlns="http://www.w3.org/2000/svg" xmlns:xlink="http://www.w3.org/1999/xlink" version="1.1" id="Layer_1" x="0px" y="0px" viewBox="0 0 40 40" style="enable-background:new 0 0 40 40;" xml:space="preserve">
<style type="text/css">
	.st0{fill:#030304;}
	.st1{fill:#FFFFFF;}
	.st2{fill:#E41B1B;}
	.st3{fill:#CB151A;}
	.st4{fill:#D4AF37;}
	.st5{fill:#C19D36;}
	.st6{fill:#1E3B6C;}
	.st7{fill:none;}
</style>
<g>
	<g>
		<path class="st0" d="M16.3,20.2h-4.8l-1.8-2.1l-0.5-0.5l-3.1-3.7h10.1v-0.4H5.8l-0.6-0.8l0,0L0.8,7.6h38.2l-5.5,5.5l-0.3,0.3h-9.8    v5.4h13l-2,2l-4.6,4.6H25l-6.8,5.9L16.3,33L16.3,20.2L16.3,20.2z M17.8,18.6v11l6.6-5.7h4.7l3.4-3.4H21.9v-8.1l1-0.4h9.7l2.7-2.7    H4.2l2.3,2.7h11.3v3.5H9.5l1.1,1.3l0.4,0.5l1.2,1.4H17.8L17.8,18.6z"/>
		<path class="st1" d="M38.1,8l-1.3,1.3l-3.5,3.5L33.1,13H23v6.2h12.4l-1.3,1.3l-4.2,4.2L29.6,25h-4.8l-6.9,6l-1.3,1.1V19.8h-5    l-0.2-0.3L10,17.8l-0.5-0.5l-1.5-1.7L7,14.2h9.7v-1.2H6l-0.2-0.3l-0.2-0.2l0,0L2.8,9.3L1.7,8H38.1 M36.2,8.8H3.4l3,3.5h11.1V15    H8.7l1.6,1.9l0.4,0.5l1.3,1.5h5.4v11.4l7.1-6.2h4.7l4.2-4.2H22.2v-7.5l0.7-0.3h9.8L36.2,8.8 M40,7.2h-1.9H1.7H0l1.1,1.3l1.1,1.3    l2.6,3.1l0,0L5,13l0.2,0.2l0.2,0.2l0,0l1.1,1.3L7.5,16L9,17.8l0.5,0.5l1.4,1.7l0.2,0.3l0.2,0.3h0.4h4.2v11.6v1.7l1.3-1.1l1.3-1.1    l6.7-5.8h4.5H30l0.2-0.2l0.2-0.2l4.2-4.2l1.3-1.3l1.3-1.3h-1.9H23.8v-4.7h9.3h0.3l0.2-0.2l0.2-0.2l3.5-3.5l1.3-1.3L40,7.2L40,7.2z     M5.1,9.5h29.3l-1.9,1.9h-9.5h-0.2l-0.1,0.1l-0.7,0.3L21.5,12v0.5V20v0.8h0.8h9.4L29,23.5h-4.4h-0.3l-0.2,0.2l-5.8,5.1V19v-0.8    h-0.8h-5l-1-1.2l-0.4-0.5l-0.6-0.7h7.1h0.8V15v-2.7v-0.8h-0.8H6.7L5.1,9.5L5.1,9.5z"/>
	</g>
	<path class="st1" d="M36.2,8.8l-3.5,3.5h-9.8l-0.7,0.3V20h11.3l-4.2,4.2h-4.7l-7.1,6.2V19h-5.4l-1.3-1.5L10.3,17L8.7,15h8.8v-2.7   H6.4l-3-3.5H36.2 M38.1,8h-1.9H3.4H1.7l1.1,1.3l3,3.5L6,13.1h0.4h10.3v1.2h-8H7l1.1,1.3l1.6,1.9l0.4,0.5l1.3,1.5l0.2,0.3h0.4h4.6   v10.7v1.7l1.3-1.1l6.9-6h4.5h0.3l0.2-0.2l4.2-4.2l1.3-1.3h-1.9H23v-6.2l0.1,0h9.6h0.3l0.2-0.2l3.5-3.5L38.1,8L38.1,8z"/>
	<g>
		<polygon class="st0" points="17.1,19.4 11.9,19.4 10.5,17.7 10,17.2 7.8,14.6 17.1,14.6 17.1,12.7 6.2,12.7 2.5,8.4 37.2,8.4     32.9,12.7 22.6,12.7 22.6,19.6 34.5,19.6 29.5,24.7 24.7,24.7 17.1,31.3   "/>
		<path class="st0" d="M36.2,8.8l-3.5,3.5H22.2V20h11.3l-4.2,4.2h-4.7l-7.1,6.2V19h-5.4l-1.3-1.5L10.3,17L8.7,15h8.8v-2.7H6.4    l-3-3.5H36.2 M38.1,8h-1.9H3.4H1.7l1.1,1.3l3,3.5L6,13.1h0.4h10.3v1.2h-8H7l1.1,1.3l1.6,1.9l0.4,0.5l1.3,1.5l0.2,0.3h0.4h4.6v10.7    v1.7l1.3-1.1l6.9-6h4.5h0.3l0.2-0.2l4.2-4.2l1.3-1.3h-1.9H23V13h9.7h0.3l0.2-0.2l3.5-3.5L38.1,8L38.1,8z"/>
	</g>
	<polygon class="st2" points="22.2,20 33.5,20 29.3,24.3 24.6,24.3 17.4,30.4 17.4,19 12.1,19 10.8,17.5 10.3,17 10.4,16.9 15.1,15    17.4,15 17.4,14.1 30.4,8.8 36.2,8.8 32.7,12.3 22.2,12.3  "/>
	<polygon class="st3" points="16.5,15 10.8,17.5 10.3,17 10.4,16.9 15.1,15  "/>
	<polygon class="st3" points="31.1,8.8 22.9,12.3 22.2,12.6 17.4,14.6 17.4,14.1 30.4,8.8  "/>
	<polygon class="st4" points="15.1,15 10.4,16.9 10.3,17 8.7,15  "/>
	<polygon class="st4" points="17.4,14.1 17.4,12.3 7,12.3 26.1,8.8 30.4,8.8  "/>
	<polygon class="st5" points="27.1,8.8 10.4,12.3 7,12.3 26.1,8.8  "/>
	<polygon class="st6" points="26.1,8.8 7,12.3 6.4,12.3 3.4,8.8  "/>
	<polygon class="st7" points="22.2,20 33.5,20 29.3,24.3 24.6,24.3 17.4,30.4 17.4,19 12.1,19 10.8,17.5 10.3,17 8.7,15 17.4,15    17.4,12.3 6.4,12.3 3.4,8.8 36.2,8.8 32.7,12.3 22.2,12.3  "/>
</g>
</svg>
