<svg xmlns="http://www.w3.org/2000/svg" xmlns:xlink="http://www.w3.org/1999/xlink" version="1.1" id="Layer_1" x="0px" y="0px" viewBox="0 0 779 699.6" style="enable-background:new 0 0 779 699.6;" xml:space="preserve">
<style type="text/css">
	.st0{fill:none;}
</style>
<g>
	<g>
		<polygon class="st0" points="292.7,680.2 298.9,641 289.4,641 286.9,656.1 274.5,656.1 276.9,641 266.7,641 260.5,680.2     270.7,680.2 273.2,664.7 285.7,664.7 283.2,680.2   "/>
		<polygon class="st0" points="316.1,671.5 305.2,671.5 310.1,641 300.6,641 294.4,680.2 314.7,680.2   "/>
		<g>
			<polygon class="st0" points="339.1,641 313.8,641 312.4,649.6 320.8,649.6 317.4,671.5 317.4,671.5 316,680.2 316,680.2      316.1,680.2 326.2,680.2 331,649.6 337.7,649.6    "/>
			<polygon class="st0" points="366.2,641 352.9,664.8 347.2,641 340.8,641 340.3,641 338.8,651.2 346.4,680.2 354.2,680.2      377.2,641    "/>
		</g>
	</g>
	<g>
		<path class="st0" d="M372.7,677.3c-0.3,2.1-2.3,3.9-4.4,3.9c-2.2,0-3.6-1.8-3.2-3.9c0.3-2.1,2.3-3.9,4.4-3.9    C371.6,673.5,373,675.3,372.7,677.3z"/>
		<path class="st0" d="M391.4,670.6c-0.8,5.2-3.3,10.6-9.5,10.6c-6.1,0-6.9-5.4-6.1-10.6s3.3-10.6,9.5-10.6    C391.4,660,392.2,665.3,391.4,670.6z M381.6,670.6c-0.1,1.2-0.8,5.5,1.2,5.5c1.9,0,2.8-4.3,2.9-5.5c0.1-1.2,0.8-5.5-1.2-5.5    C382.6,665.1,381.8,669.3,381.6,670.6z"/>
		<path class="st0" d="M401.2,660.4l-0.4,2.5h0.1c1.4-1.8,2.9-3,5.2-3.2l-0.8,5.5c-0.3,0-0.6-0.1-0.8-0.1c-3.9,0-4.3,2.5-4.7,5.5    l-1.7,10.2h-5.9l3.2-20.4L401.2,660.4L401.2,660.4z"/>
		<path class="st0" d="M409.5,683.5c-0.1,1.2,0,2.9,1.7,2.9c2.5,0,2.8-3.9,3-5.6l0.4-2.6h-0.1c-0.6,0.7-1.1,1.5-1.7,2.1    c-0.7,0.6-1.5,1-2.5,1c-2.1,0-3.2-1.7-3.9-3.4c-0.7-2.1-0.6-4.7-0.3-6.9c0.6-3.6,2.3-10.9,7.3-10.9c1.9,0,3,1.2,3.4,2.9h0.1    l0.4-2.5h5.6l-3.6,22.2c-1,5.9-4,8.4-8.9,8.4c-4.8,0-6.6-2.8-6.2-7.4L409.5,683.5L409.5,683.5z M416.1,670.4    c0.1-1.1,0.8-5.5-1.1-5.5s-2.8,4.3-2.9,5.5c-0.1,1.2-0.8,5.5,1.2,5.5C415.1,675.9,415.9,671.5,416.1,670.4z"/>
	</g>
</g>
<g>
	<path d="M229.7,3.2c12.5-2.2,25.3-3,38.1-3c123.4-0.3,246.7,0,369.9,0c3.9,0,7.8-0.3,11.7,0.4C632.8,13.5,616,27,599.2,39.8   c-15.6,12.5-31.7,24.8-47.5,37c-1.5,1.1-2.8,3-5,2.8c-83.3,0-166.4,0-249.7,0c-42.7-1.2-84.9,17.6-114.7,47.9   c-29.9,30.3-47.6,72.1-48.2,115c-0.8,7.4,0.3,15,0.3,22.3c-0.3,29.9,0.4,59.9-0.4,89.8c0,11,0.3,22.2,0,33.5c-31.4,0-62.9,0-94.3,0   c-0.3-52.5,0-105.2,0-157.6c-0.3-54.2,19.5-108.6,54.7-149.8C127.9,39.6,176.9,11.3,229.7,3.2L229.7,3.2z"/>
	<path d="M196.9,110.5C197.6,111.4,197.6,111.4,196.9,110.5L196.9,110.5z"/>
	<path d="M384.4,154c39.6-0.3,79.3-0.3,118.8,0c-1.9,3.7-5.6,5.9-8.4,8.9c-25.2,24.9-50.2,50.2-75.4,75   c-9.8,9.5-19.1,19.7-29.3,28.8c-13.9,14-27.9,27.8-41.9,41.9c18-0.3,35.9,0.8,53.8,3.4c31.7,4.8,63.5,15.1,88.5,35.8   c21.2,16.9,36.2,40.8,44.2,66.5c6.5,20.4,8.7,42.1,8.7,63.5c0,21.2,0,42.5,0,63.7c-30.1,0-60.3,0-90.6,0c0-23.4,0.4-46.8-2.2-70.1   c-2.2-21.2-7.8-43.8-24.1-58.8c-17.3-15.6-41.4-20.1-63.7-22.7c-27.9-3-56.2-1.9-84.4-2.2c-16.2,0-32.5,0.3-48.7-0.3   c-0.3-25.6-0.3-50.9-0.3-76.5c0-1.5,0.4-2.6,1.5-3.7C282.2,256.5,333.3,205.3,384.4,154L384.4,154z"/>
	<path d="M644.9,310.4c31.4,0,62.9,0,94.3,0c0.4,35.9,0,71.7,0.3,107.8c-0.3,26.3,0.8,52.7-1.8,78.9c-5.2,44.5-23.4,87.4-52.3,121.6   c-32.9,39.9-79.8,68.3-130.9,77.2c-9.5,1.9-19.3,2.6-28.8,3.4c-32.5,0.7-65.3-0.3-97.7,0c-99.7,0.3-199.5,0.3-299,0   c34.3-26,69.4-50.8,104.1-76.3c14.7-0.8,29.7-0.3,44.5-0.4c71.3,0,142.6,0,213.9,0c24.8-0.8,49.8-4.5,72.7-14.6   c22.6-9.5,41.9-26,54.8-46.8c18.2-28.8,24.2-63.5,25.7-97.2C645,413,644.3,361.8,644.9,310.4L644.9,310.4z"/>
</g>
</svg>
