<svg id="Layer_1" data-name="Layer 1" xmlns="http://www.w3.org/2000/svg" viewBox="0 0 169.38 127.8"><defs><style>.cls-1{fill:#e4c477;}.cls-2{fill:none;}.cls-2,.cls-3,.cls-4{stroke:#231f20;stroke-linecap:round;stroke-miterlimit:10;}.cls-3{fill:#644737;}.cls-4{fill:#644838;}.cls-5{font-size:19px;fill:#231f20;font-family:Arial;}</style></defs><title>OfficialLogo</title><path class="cls-1" d="M326.22,328.83a52.13,52.13,0,0,1,.31,5.76,54,54,0,0,1-1.74,13.67,33.34,33.34,0,0,0-4.5-.31,32.23,32.23,0,0,0-32.23,32.24,31.71,31.71,0,0,0,.57,6,54.12,54.12,0,1,1,24.27-87.54A18.39,18.39,0,0,0,326.22,328.83Z" transform="translate(-182.25 -261.4)"/><path class="cls-2" d="M326.22,328.83a52.13,52.13,0,0,1,.31,5.76,54,54,0,0,1-1.74,13.67" transform="translate(-182.25 -261.4)"/><path class="cls-2" d="M288.63,386.23a54.12,54.12,0,1,1,24.27-87.54" transform="translate(-182.25 -261.4)"/><path class="cls-2" d="M288.63,386.23a31.71,31.71,0,0,1-.57-6A32.23,32.23,0,0,1,320.29,348a33.34,33.34,0,0,1,4.5.31" transform="translate(-182.25 -261.4)"/><path class="cls-2" d="M326.22,328.83a18.39,18.39,0,0,1-13.32-30.14" transform="translate(-182.25 -261.4)"/><ellipse class="cls-3" cx="97.51" cy="44.56" rx="10.16" ry="7.28"/><circle class="cls-4" cx="60.32" cy="75.88" r="6.99"/><circle class="cls-4" cx="76.54" cy="107.49" r="6.71"/><circle class="cls-4" cx="95.56" cy="84.27" r="5.87"/><text class="cls-5" transform="translate(67.31 20.81) rotate(-16.84) scale(1.02 1)">R</text><text class="cls-5" transform="translate(80.14 17.04) rotate(-5.21) scale(1.02 1)">ó</text><text class="cls-5" transform="translate(90.38 16.06) rotate(4.73) scale(1.02 1)">b</text><text class="cls-5" transform="translate(100.63 16.86) rotate(14.87) scale(1.02 1)">e</text><text class="cls-5" transform="translate(110.59 19.63) rotate(23.07) scale(1.02 1)">r</text><text class="cls-5" transform="translate(116.24 22.04) rotate(28.73) scale(1.02 1)">t</text><text class="cls-5" transform="translate(120.71 24.48) rotate(33.91) scale(1.02 1)"> </text><text class="cls-5" transform="translate(125.02 26.98) rotate(42.86) scale(1.02 1)">&amp;</text><text class="cls-5" transform="translate(133.96 35.62) rotate(51.94) scale(1.02 1)"> </text><text class="cls-5" transform="translate(137.27 39.28) rotate(61.25) scale(1.02 1)">P</text><text class="cls-5" transform="translate(143.15 50.09) rotate(73.62) scale(1.02 1)">é</text><text class="cls-5" transform="translate(145.9 60.02) rotate(82.11) scale(1.02 1)">t</text><text class="cls-5" transform="translate(146.85 64.88) rotate(90.97) scale(1.02 1)">u</text><text class="cls-5" transform="translate(146.58 75.22) rotate(99.58) scale(1.02 1)">r</text><text x="-182.25" y="-261.4"/></svg>