<?xml version="1.0" encoding="UTF-8" standalone="no"?>
<!-- Created with Inkscape (http://www.inkscape.org/) -->

<svg
   xmlns:dc="http://purl.org/dc/elements/1.1/"
   xmlns:cc="http://creativecommons.org/ns#"
   xmlns:rdf="http://www.w3.org/1999/02/22-rdf-syntax-ns#"
   xmlns:svg="http://www.w3.org/2000/svg"
   xmlns="http://www.w3.org/2000/svg"
   xmlns:sodipodi="http://sodipodi.sourceforge.net/DTD/sodipodi-0.dtd"
   xmlns:inkscape="http://www.inkscape.org/namespaces/inkscape"
   width="1920px"
   height="1080px"
   version="1.1"
   id="SVGRoot"
   inkscape:version="0.92.4 (5da689c313, 2019-01-14)"
   sodipodi:docname="2.svg">
  <g
     inkscape:label="Layer 1"
     inkscape:groupmode="layer"
     id="layer1">
    <path
       style="fill:none;stroke:#000000;stroke-width:1px;stroke-linecap:butt;stroke-linejoin:miter;stroke-opacity:1"
       d="m 200.83883,100.31082 -8.50959,10.94091 -10.94091,14.18266 -8.10437,6.07828 7.29393,8.91481 6.88872,12.967 3.64697,9.72525 5.26784,5.26784 3.24175,11.75134 c 0,0 0,2.43132 -1.21565,5.26785 -1.21566,2.83653 -2.0261,13.37221 -2.0261,13.37221 l 4.45741,10.53569 c 0,0 2.43131,4.45741 2.83653,6.4835 0.40522,2.02609 3.64697,12.56178 3.64697,12.56178 l 12.967,2.02609 9.72525,5.26785 14.58787,6.07828 14.58788,4.05219 11.34612,3.64696 10.94091,-7.69915 8.10437,-2.43131 8.91481,2.43131 15.80353,1.21566 14.18266,0.40521 h 27.14965 l 6.07828,8.10438 14.58788,14.58787 20.66615,6.88872 17.82963,3.24175 17.4244,4.86263 10.94091,2.83653 21.88181,-5.26785 5.67306,-7.29393 c 0,0 17.82962,-3.24175 19.4505,-3.64697 1.62087,-0.40522 15.8035,-0.40522 18.6401,0 2.8365,0.40522 12.967,9.32003 12.967,9.32003 l 3.2417,6.88872 8.5096,2.02609 10.9409,-4.05219 10.9409,-1.62087 2.4313,-15.39831 3.647,-14.58788 c 0,0 8.9148,-4.86262 8.9148,-8.50959 0,-3.64697 0.4052,-16.61397 0.4052,-16.61397 l -13.7774,-6.4835 c 0,0 -8.5096,-5.67306 -8.5096,-7.29394 0,-1.62087 -1.6209,-11.75134 -1.6209,-11.75134 0,0 -3.6469,-3.24175 -5.673,-3.64697 -2.0261,-0.40522 -16.2088,-13.37221 -16.2088,-13.37221 l -0.8104,-9.32004 -10.9409,-4.4574 -4.8627,-5.67306 -2.4313,-12.56178 -1.6208,-10.53569 -13.37226,-7.69916 -5.26785,-17.01918 -1.62087,-4.86263 1.62087,-11.75134 -0.81043,-9.72525 -8.10438,0.81044 -4.86262,-0.81044 -0.40522,-6.88872 1.62087,-9.72525 -1.21565,-10.13047 2.83653,-3.24175 -0.40522,-13.77743 -1.21566,-12.967 -11.34612,-7.29394 -8.10438,-6.88872 2.83654,-6.88871 9.72524,-3.24175 3.24175,-11.75135 -7.29393,-8.10437 2.83653,-12.15656 2.02609,-9.72525 -9.72525,-9.32003 -9.32003,-14.9931 -2.83653,-3.64697 v 6.07829 6.07828 l -2.02609,4.86262 -6.07828,1.21566 2.43131,3.24175 -2.83653,2.02609 -1.21566,-2.83653 -4.86262,-1.21566 -15.80353,2.0261 -4.86263,5.26784 -4.86262,1.62088 2.43131,8.10437 1.21566,4.86262 -2.43132,4.05219 -6.07828,1.62088 -2.43131,2.83653 4.86262,6.4835 1.62088,1.62087 3.24175,7.29394 3.64697,4.45741 2.43131,6.88871 1.21566,6.07828 -3.24175,4.05219 -0.40522,4.86263 2.43131,2.43131 -2.43131,1.21565 -2.0261,3.64697 2.0261,5.67307 h -6.07828 l -5.67307,-3.24175 -2.83653,-2.83654 -3.64696,-2.43131 0.40521,6.4835 -7.69915,1.21566 -3.24175,-4.05219 -0.40522,-8.10437 -5.67306,-19.4505 -10.94091,-6.88872 h -3.64697 l -2.43131,-2.83653 v -6.4835 l -2.43131,-2.02609 -4.86263,-6.07829 -0.40521,-6.4835 -5.67307,-6.88871 -3.64697,-9.72525 v -4.05219 l -3.64696,-2.02609 -2.43132,-6.07828 -1.62087,-4.05219 -2.43131,1.62087 -8.10438,-1.21565 -5.26784,6.88871 -6.07828,-3.24174 -5.67306,5.26784 -5.26785,-2.0261 -4.86262,3.64697 2.83653,7.69916 -0.40522,4.86262 -3.64697,6.07828 5.26784,0.81044 v 8.91481 l 3.24175,11.75135 4.05219,12.15656 2.0261,9.72525 -3.64697,1.62087 5.26784,14.18266 v 10.13047 l -1.62087,8.50959 -2.43132,15.80353 -12.967,5.67306 -8.50959,1.21566 -14.58787,1.21565 1.21565,-15.39831 -1.62087,-6.4835 -12.15656,4.05219 -10.53569,12.967 -8.50959,4.05219 -4.86263,20.26093 -4.86262,7.29394 6.07828,17.01919 2.43131,10.9409 -1.21566,8.5096 -6.07828,-8.10438 -4.05218,-12.15656 -2.0261,-9.72525 -5.26784,1.21566 1.62087,10.53568 v 24.71835 l -3.64696,3.64696 -1.21566,8.10438 3.24175,7.69915 1.21566,15.80353 -3.64697,2.43132 0.40522,-10.94091 -6.4835,-8.91481 -1.21566,-14.18266 -1.21566,-6.07828 1.21566,-12.56178 0.40522,-18.23484 -8.50959,-6.07828 z"
       id="path3826"
       inkscape:connector-curvature="0" />
  </g>
</svg>
