<?xml version="1.0" encoding="UTF-8" standalone="no"?>
<!-- Created with Inkscape (http://www.inkscape.org/) -->

<svg
   xmlns:dc="http://purl.org/dc/elements/1.1/"
   xmlns:cc="http://creativecommons.org/ns#"
   xmlns:rdf="http://www.w3.org/1999/02/22-rdf-syntax-ns#"
   xmlns:svg="http://www.w3.org/2000/svg"
   xmlns="http://www.w3.org/2000/svg"
   xmlns:sodipodi="http://sodipodi.sourceforge.net/DTD/sodipodi-0.dtd"
   xmlns:inkscape="http://www.inkscape.org/namespaces/inkscape"
   width="1920px"
   height="1080px"
   viewBox="0 0 1920 1080"
   version="1.1"
   id="SVGRoot"
   sodipodi:docname="3.svg"
   inkscape:version="0.92.4 (5da689c313, 2019-01-14)">

  <g
     inkscape:label="Layer 1"
     inkscape:groupmode="layer"
     id="layer1">
    <path
       style="fill:none;stroke:#000000;stroke-width:1px;stroke-linecap:butt;stroke-linejoin:miter;stroke-opacity:1"
       d="m 942.13353,246.8703 9.72525,7.69916 2.83653,6.88872 8.10438,7.69915 2.43131,14.18266 -4.86262,11.34612 8.91481,10.53569 -4.86263,8.50959 -6.4835,3.64697 -4.4574,6.4835 5.67306,9.32003 11.34612,7.29394 6.07829,19.4505 -5.26785,6.4835 -3.64697,7.29393 -1.21565,13.37222 0.40522,9.72525 11.75134,3.24175 7.69915,6.07828 -2.83653,10.13047 1.21566,15.39831 7.69916,12.15656 5.67306,4.86263 6.07828,4.86262 v 11.34613 l 13.7774,14.58787 8.5096,5.67306 3.647,12.56178 14.1827,7.69916 2.4313,11.75134 12.1565,10.53569 10.1305,6.88872 2.0261,6.07828 -11.3461,13.77743 -1.6209,12.15657 -4.8626,20.26093 1.6208,8.91481 9.3201,11.75135 8.5096,4.05218 h 8.9148 10.1304 l 8.9149,11.75135 17.8296,17.01918 c 0,0 16.6139,21.07138 17.0192,19.85572 0.4052,-1.21565 13.7774,12.15656 13.7774,12.15656 h 16.614 l 29.5809,-2.43131 19.0453,-1.21565 8.1044,0.81043 -0.8104,-61.18802 3.2417,-27.14966 -2.4313,-19.4505 6.8887,-10.13047 14.1827,-6.88871 10.5357,-17.42441 8.1043,-1.21566 6.4835,-4.86262 1.6209,-9.32003 1.2157,-7.69916 -2.8366,-14.58787 -0.8104,-5.67306 4.8626,-12.56178 4.8626,-5.26785 6.4835,-6.4835 4.4574,-8.91481 -1.6208,-10.53569 -5.2679,-8.50959 -10.9409,-6.4835 c 0,0 -0.4052,-6.4835 0.8105,-8.10437 1.2156,-1.62088 4.4574,-10.94091 4.4574,-10.94091 l 2.4313,-8.91481 4.0522,-10.13047 6.0782,-1.62087 14.5879,2.43131 11.3461,2.02609 4.0522,-8.50959 5.2679,-12.56178 -1.6209,-8.91481 c 0,0 0.4052,-6.4835 0.4052,-7.69916 0,-1.21565 0,-14.99309 0,-14.99309 l 13.7775,-4.05219 12.967,-10.9409 7.6991,-12.15657 8.1044,-6.07828 13.3722,-1.62087 19.8557,-5.26784 h 6.8887 l 9.7253,-7.69916 3.647,-8.50959 h 12.1565 l 4.0522,-3.64697 -2.8365,-9.32003 -2.4313,-1.21566 -4.8627,-9.32003 -6.0782,-2.02609 -4.4575,3.64696 -2.4313,3.64697 -7.6991,4.05219 -3.647,-4.86262 -3.2417,1.21565 h -6.4835 l -3.647,-2.83653 -6.0783,2.43131 -2.0261,0.40522 3.2418,-7.69915 1.6208,-8.10438 -6.0782,-0.40522 -5.2679,2.83653 -2.0261,-3.24175 2.0261,-7.69915 11.3461,-2.43131 9.7253,-7.69916 1.2156,-12.967 -6.0782,-6.4835 -2.4313,-6.88872 10.5356,-3.64696 11.3462,-5.26785 3.2417,-6.88872 18.6401,-5.26784 3.6469,-6.88872 -11.3461,1.21566 -7.2939,4.4574 -10.5357,-3.24175 -6.0783,-2.83653 -7.2939,4.86263 -2.8366,4.86262 -2.026,0.40522 -1.2157,3.64697 -1.6209,7.29394 -4.8626,6.07828 -4.4574,-1.21566 -1.6209,4.86263 -4.8626,2.43131 -12.967,4.86262 -3.2418,-4.05218 -2.026,4.05218 -0.8105,8.10438 0.8105,5.26784 1.2156,6.88872 -7.2939,1.62087 -2.4313,-2.83653 -2.4314,-3.24175 -2.4313,1.21566 -3.2417,-2.43131 -1.6209,-2.83653 -0.8104,-3.24175 h -4.0522 l -4.4574,-3.64697 -2.4313,0.81044 -6.4835,1.21565 -2.4313,-2.02609 0.4052,-7.29394 -4.8627,0.81044 -3.6469,-2.43131 7.2939,-8.10438 3.647,-9.72525 -4.0522,-8.50959 -2.4313,-5.26784 h -7.294 l -7.2939,0.40521 2.4313,-5.26784 h -4.0522 -3.2417 -6.0783 l 2.4313,-4.45741 -1.2156,-1.62087 3.6469,-7.29394 -1.2156,-3.64697 -4.4574,-3.64696 -5.2679,-0.81044 -1.2156,-5.26785 h -5.2679 l 0.8105,2.83654 -4.0522,-1.21566 -8.5096,-2.43131 h -3.647 l -3.2417,7.29393 -2.4313,-2.43131 -3.647,3.24175 2.8365,3.64697 -5.673,3.64697 -3.647,-6.07828 -4.8626,-0.81044 -4.8627,-0.40522 -11.7513,-1.21565 -4.0522,7.29393 4.8626,12.15656 4.8627,5.26785 -2.4314,3.24175 0.4053,6.07828 v 8.50959 l 6.8887,10.94091 6.0783,10.13047 -8.5096,12.15656 -3.647,6.07828 -8.5096,2.43131 -9.32,7.29394 -12.5618,6.88872 -9.7253,2.43131 -6.0782,-9.72525 -6.0783,-10.94091 -9.32,-2.02609 -6.0783,1.21566 -3.647,5.67306 -8.9148,-2.43131 -3.2418,7.29393 3.647,3.64697 -1.2156,10.13047 -6.4835,3.24175 -3.2418,4.86262 2.4313,8.5096 -4.0522,8.50959 -6.8887,7.29394 -11.3461,-0.81044 -8.1044,-3.24175 -4.0522,-8.10437 -13.3722,-13.77744 -6.0783,-2.0261 -3.6469,-5.67306 0.4052,-3.64697 -6.4835,-2.83653 -9.7253,-2.02609 -6.8887,4.45741 -4.8626,-6.07829 -14.5879,-2.83653 -6.4835,9.32003 1.2157,14.18266 4.0522,17.4244 8.1043,14.58788 1.6209,10.9409 h 8.1044 l 6.0783,15.39832 0.4052,10.9409 -3.647,8.50959 6.8887,21.07138 -8.1043,-2.83653 -5.2679,-9.72525 2.8365,-11.75135 -4.8626,-4.05218 -1.2156,-12.15656 -2.8366,-4.45741 -3.2417,2.02609 -4.8626,-12.15656 -8.9149,-8.91481 -9.32,-4.05219 h -6.0783 l 0.8105,-10.9409 -3.647,-19.04528 -9.72525,0.40522 -0.81044,-4.86263 2.0261,-7.29394 -6.88872,-7.29393 -9.72525,6.07828 -1.21566,-4.86263 4.86263,-4.4574 -10.13047,-6.4835 -4.45741,9.72525 -4.86262,6.4835 -1.21566,-8.91482 c 0,0 -0.81044,-5.26784 -2.83653,-4.4574 -2.02609,0.81044 -9.32003,5.67306 -9.32003,5.67306 z"
       id="path3828"
       inkscape:connector-curvature="0" />
  </g>
</svg>
