<?xml version="1.0" encoding="UTF-8" standalone="no"?>
<!-- Created with Inkscape (http://www.inkscape.org/) -->

<svg
   xmlns:dc="http://purl.org/dc/elements/1.1/"
   xmlns:cc="http://creativecommons.org/ns#"
   xmlns:rdf="http://www.w3.org/1999/02/22-rdf-syntax-ns#"
   xmlns:svg="http://www.w3.org/2000/svg"
   xmlns="http://www.w3.org/2000/svg"
   xmlns:sodipodi="http://sodipodi.sourceforge.net/DTD/sodipodi-0.dtd"
   xmlns:inkscape="http://www.inkscape.org/namespaces/inkscape"
   width="1920px"
   height="1080px"
   viewBox="0 0 1920 1080"
   version="1.1"
   id="SVGRoot"
   sodipodi:docname="4.svg"
   inkscape:version="0.92.4 (5da689c313, 2019-01-14)">
  <defs
     id="defs3748" />
  <sodipodi:namedview
     id="base"
     pagecolor="#ffffff"
     bordercolor="#666666"
     borderopacity="1.0"
     inkscape:pageopacity="0.0"
     inkscape:pageshadow="2"
     inkscape:zoom="2.467803"
     inkscape:cx="1384.2545"
     inkscape:cy="539.7365"
     inkscape:document-units="px"
     inkscape:current-layer="layer1"
     showgrid="false"
     inkscape:window-width="2880"
     inkscape:window-height="1526"
     inkscape:window-x="-11"
     inkscape:window-y="-11"
     inkscape:window-maximized="1" />
  <metadata
     id="metadata3751">
    <rdf:RDF>
      <cc:Work
         rdf:about="">
        <dc:format>image/svg+xml</dc:format>
        <dc:type
           rdf:resource="http://purl.org/dc/dcmitype/StillImage" />
        <dc:title></dc:title>
      </cc:Work>
    </rdf:RDF>
  </metadata>
  <g
     inkscape:label="Layer 1"
     inkscape:groupmode="layer"
     id="layer1">
    <path
       style="fill:none;stroke:#000000;stroke-width:1px;stroke-linecap:butt;stroke-linejoin:miter;stroke-opacity:1"
       d="m 1440.5526,328.31927 -17.0192,3.64697 -9.7253,8.10437 -2.4313,9.72525 -23.5027,0.40522 -21.8818,7.29393 -6.8887,4.45741 -5.2678,12.15656 -15.3984,12.56178 -10.1304,1.21566 -9.3201,6.88872 -0.4052,10.13047 4.0522,14.58787 -4.0522,17.01919 -8.5096,3.64696 -12.967,-1.62087 -7.6991,-0.81044 -7.294,3.64697 -3.2417,16.61397 -8.9148,10.13047 4.0522,11.75134 9.7252,7.29394 c 0,0 4.4574,4.4574 4.8626,7.69915 0.4053,3.24175 -9.7252,21.88181 -9.7252,21.88181 l -7.2939,6.07828 v 13.37222 l 1.2156,18.23484 -1.2156,23.09747 -14.9931,4.86263 -9.7253,10.53568 -5.673,7.69916 h -11.3462 l -3.6469,20.26094 -5.6731,26.74443 v 18.23484 l 2.0261,25.52878 0.4052,24.31313 17.8296,6.88872 23.0975,-3.24175 31.6071,-1.21566 19.4505,-12.15656 22.287,-15.80353 21.4766,-11.34613 12.1565,-8.50959 3.2418,-14.18266 8.1044,-1.62087 4.4574,-4.45741 8.5096,6.07828 7.2939,-0.81043 8.9148,4.05218 -0.4052,11.34613 6.8887,12.967 8.1044,10.9409 11.7513,-4.4574 14.1827,6.88872 17.0192,3.64696 6.4835,13.77744 0.8104,-4.45741 1.6209,-5.67306 c 0,0 -2.0261,-0.81043 -2.4313,-2.02609 -0.4052,-1.21566 4.4574,-7.69916 4.4574,-7.69916 l -0.8105,-6.88871 1.6209,-6.07829 10.5357,-13.77743 -6.4835,1.62087 -8.5096,14.18266 -5.6731,-1.21566 h -4.4574 l -2.026,-8.10437 13.3722,-4.05219 4.4574,-2.02609 1.2156,-7.69916 -7.6991,-2.43131 -5.2679,-4.45741 17.4244,-3.64697 -12.5617,-18.64006 -9.3201,-9.32003 6.4835,-3.24175 11.7514,10.53569 12.967,8.50959 14.5878,-0.40522 15.3984,-3.24175 -2.4314,-8.91481 -7.6991,-9.32003 c 0,0 6.8887,-3.24175 8.9148,-2.43131 2.0261,0.81044 12.1566,-1.62088 12.1566,-1.62088 l -6.8888,-6.88871 7.6992,-2.83654 6.0783,2.43132 8.1044,-6.07828 -2.4314,-4.45741 -14.9931,-4.05219 -16.6139,-4.4574 1.2156,-4.05219 16.2088,0.40522 20.6661,2.02609 1.2157,-4.4574 -5.2678,-2.83654 -9.7253,-1.21565 -6.4835,-6.88872 c 0,0 -2.8365,-3.24175 -4.4574,-3.64697 -1.6209,-0.40522 -13.3722,-2.43131 -13.3722,-2.43131 l -8.5096,0.81044 -10.9409,2.43131 -6.4835,-4.45741 2.0261,-5.67306 15.3983,0.81044 7.6991,-0.81044 -3.2417,-8.91481 11.7513,0.81044 8.9148,7.29393 10.1305,6.4835 0.8105,3.64697 10.5356,-1.21565 8.9148,-1.21566 -2.8365,-8.91481 10.9409,-4.86263 3.647,-10.53568 c 0,0 -4.0522,2.43131 -4.0522,0.81043 0,-1.62087 0,-14.58787 0,-14.58787 l -4.4574,2.83653 -4.0522,12.15656 -5.2678,-3.64697 -0.4052,-2.43131 h -6.4835 l 6.4835,-4.86262 -9.7253,-0.40522 10.1305,-5.67306 2.0261,-7.29394 -20.6662,2.43131 -7.6991,-2.83653 -15.3984,6.07828 -3.6469,-5.67306 22.287,-4.86263 19.0453,-0.40521 9.7252,-14.58788 -14.9931,-5.67306 -9.7252,2.43131 -3.2418,-1.62087 -15.8035,5.26784 -7.2939,4.86262 -0.8105,-6.07828 14.1827,-5.67306 10.1305,-4.4574 5.673,-4.45741 -12.5618,-4.05219 4.4574,-5.67306 11.7514,0.40522 3.647,-4.45741 -2.0261,-5.67306 6.0782,-2.43131 -1.6208,-6.88872 -5.6731,-4.86262 6.0783,-2.43132 1.2156,-7.69915 -6.4835,-6.88872 -2.4313,3.24175 v -10.53569 l -8.5096,2.0261 -5.673,10.9409 -3.647,-11.75134 -5.6731,-3.64697 5.6731,-4.05219 -11.3461,-4.86262 -6.8887,5.26784 -20.261,-5.67306 -14.1826,-9.72525 -8.1044,-6.4835 -6.0783,-5.26784 8.5096,-15.39831 -15.8035,2.43131 -10.1305,8.10437 -6.8887,-2.43131 h -7.2939 l -4.8627,6.4835 -8.9148,0.81044 c 0,0 -2.4313,-6.07828 -0.8104,-7.69916 1.6209,-1.62087 6.0783,-6.4835 6.0783,-6.4835 l -7.294,-1.21565 c 0,0 1.2157,-8.10438 2.4313,-8.5096 1.2157,-0.40522 8.1044,-2.02609 8.1044,-2.02609 l 1.6209,-7.69916 8.1044,-6.07828 0.4052,-8.50959 0.8104,-4.86263 z"
       id="path3830"
       inkscape:connector-curvature="0" />
  </g>
</svg>
