<?xml version="1.0" encoding="UTF-8" standalone="no"?>
<!-- Created with Inkscape (http://www.inkscape.org/) -->

<svg
   xmlns:dc="http://purl.org/dc/elements/1.1/"
   xmlns:cc="http://creativecommons.org/ns#"
   xmlns:rdf="http://www.w3.org/1999/02/22-rdf-syntax-ns#"
   xmlns:svg="http://www.w3.org/2000/svg"
   xmlns="http://www.w3.org/2000/svg"
   xmlns:sodipodi="http://sodipodi.sourceforge.net/DTD/sodipodi-0.dtd"
   xmlns:inkscape="http://www.inkscape.org/namespaces/inkscape"
   width="1920px"
   height="1080px"
   viewBox="0 0 1920 1080"
   version="1.1"
   id="SVGRoot"
   sodipodi:docname="5.svg"
   inkscape:version="0.92.4 (5da689c313, 2019-01-14)">
  <defs
     id="defs3748" />
  <sodipodi:namedview
     id="base"
     pagecolor="#ffffff"
     bordercolor="#666666"
     borderopacity="1.0"
     inkscape:pageopacity="0.0"
     inkscape:pageshadow="2"
     inkscape:zoom="2.467803"
     inkscape:cx="1197.1811"
     inkscape:cy="247.97902"
     inkscape:document-units="px"
     inkscape:current-layer="layer1"
     showgrid="false"
     inkscape:window-width="2880"
     inkscape:window-height="1526"
     inkscape:window-x="-11"
     inkscape:window-y="-11"
     inkscape:window-maximized="1" />
  <metadata
     id="metadata3751">
    <rdf:RDF>
      <cc:Work
         rdf:about="">
        <dc:format>image/svg+xml</dc:format>
        <dc:type
           rdf:resource="http://purl.org/dc/dcmitype/StillImage" />
        <dc:title></dc:title>
      </cc:Work>
    </rdf:RDF>
  </metadata>
  <g
     inkscape:label="Layer 1"
     inkscape:groupmode="layer"
     id="layer1">
    <path
       style="fill:none;stroke:#000000;stroke-width:1px;stroke-linecap:butt;stroke-linejoin:miter;stroke-opacity:1"
       d="m 776.80429,898.05679 10.53569,-12.56178 12.15656,-12.15656 14.9931,-12.15656 10.9409,-15.80353 11.75134,-7.29394 4.86263,-21.47659 -2.43131,-17.01919 13.37221,-8.91481 13.37222,-10.9409 13.77744,-19.04528 12.15656,-7.29394 13.37222,-12.56178 2.43131,-4.86263 14.18266,-8.91481 12.15656,-0.81044 16.20875,-15.80353 16.61396,-1.62087 18.64007,-6.4835 11.75134,-4.86263 13.7774,-14.99309 2.0261,-15.80353 9.7253,-15.39831 h 17.0192 l 6.4835,9.32003 19.0452,3.64697 18.2349,6.4835 c 0,0 10.9409,5.67306 13.7774,4.4574 2.8366,-1.21565 26.3392,-6.88871 26.3392,-6.88871 l 21.0714,-10.13047 c 0,0 8.9148,4.4574 10.9409,3.64697 2.0261,-0.81044 18.2349,-2.0261 18.2349,-2.0261 l 10.5356,1.21566 c 0,0 1.6209,10.13047 2.8366,12.15656 1.2156,2.02609 5.673,6.88872 5.673,6.88872 l 8.9149,-6.07828 9.7252,-0.81044 10.5357,6.88872 10.9409,11.34612 15.8035,8.10438 h 9.7253 l 12.1565,12.15656 23.5027,22.69225 14.5879,17.4244 15.8035,8.91482 132.1013,-11.75135 76.9916,-44.57406 5.6731,-16.20875 13.3722,-4.86262 12.1565,4.86262 9.7253,1.62088 0.4052,11.75134 8.5096,21.88181 25.1236,0.40522 6.0782,6.88872 14.9931,1.21566 6.8887,5.26784 4.0522,10.53569 -11.3461,3.64696 -12.967,0.40522 -1.2156,7.29394 -13.3723,4.86263 -4.8626,10.53568 2.4313,4.05219 -4.8626,9.72525 -3.647,3.24175 -26.7444,4.05219 -30.7966,0.81043 v 4.86263 l -24.3132,5.26784 -3.6469,7.29394 -17.8296,4.86262 -18.6401,15.39831 -19.0453,14.9931 -23.0975,27.55487 -19.0452,20.66616 -6.8888,16.20874 -25.934,2.83654 -44.9792,2.83653 -31.2019,3.64697 -20.6661,12.56178 -18.2349,15.39831 -14.1826,34.44359 -25.934,14.18265 -24.3131,7.29393 -34.0384,8.9148 -12.1566,2.4313 -21.4766,-3.2417 -8.9148,-2.0261 -12.1565,4.0522 -14.1827,-6.0783 -51.4628,-23.09747 -29.9862,-6.07828 -27.14962,2.43131 -36.06447,-32.4175 -29.17574,-25.52878 -46.60016,-23.50268 -15.80353,-9.72525 -15.80353,0.40522 1.21566,8.10437 -17.01919,-0.81043 -17.01918,5.67306 -5.67307,-3.64697 -5.26784,-7.29394 -12.967,2.43131 z"
       id="path3832"
       inkscape:connector-curvature="0" />
  </g>
</svg>
