<?xml version="1.0" encoding="UTF-8" standalone="no"?>
<!-- Created with Inkscape (http://www.inkscape.org/) -->

<svg
   xmlns:dc="http://purl.org/dc/elements/1.1/"
   xmlns:cc="http://creativecommons.org/ns#"
   xmlns:rdf="http://www.w3.org/1999/02/22-rdf-syntax-ns#"
   xmlns:svg="http://www.w3.org/2000/svg"
   xmlns="http://www.w3.org/2000/svg"
   xmlns:sodipodi="http://sodipodi.sourceforge.net/DTD/sodipodi-0.dtd"
   xmlns:inkscape="http://www.inkscape.org/namespaces/inkscape"
   width="1920px"
   height="1080px"
   viewBox="0 0 1920 1080"
   version="1.1"
   id="SVGRoot"
   sodipodi:docname="6.svg"
   inkscape:version="0.92.4 (5da689c313, 2019-01-14)">
  <defs
     id="defs3748" />
  <sodipodi:namedview
     id="base"
     pagecolor="#ffffff"
     bordercolor="#666666"
     borderopacity="1.0"
     inkscape:pageopacity="0.0"
     inkscape:pageshadow="2"
     inkscape:zoom="6.9800011"
     inkscape:cx="837.41316"
     inkscape:cy="227.67188"
     inkscape:document-units="px"
     inkscape:current-layer="layer1"
     showgrid="false"
     inkscape:window-width="2880"
     inkscape:window-height="1526"
     inkscape:window-x="-11"
     inkscape:window-y="-11"
     inkscape:window-maximized="1" />
  <metadata
     id="metadata3751">
    <rdf:RDF>
      <cc:Work
         rdf:about="">
        <dc:format>image/svg+xml</dc:format>
        <dc:type
           rdf:resource="http://purl.org/dc/dcmitype/StillImage" />
        <dc:title></dc:title>
      </cc:Work>
    </rdf:RDF>
  </metadata>
  <g
     inkscape:label="Layer 1"
     inkscape:groupmode="layer"
     id="layer1">
    <path
       style="fill:none;stroke:#000000;stroke-width:1px;stroke-linecap:butt;stroke-linejoin:miter;stroke-opacity:1"
       d="m 842.26348,921.40404 c 0.57307,-0.28654 3.72493,-9.02579 3.72493,-9.02579 0,0 9.02579,-6.01719 8.30945,-6.44699 -0.71633,-0.4298 10.17192,-9.45559 10.17192,-9.45559 l 9.45559,-10.02865 2.29226,-3.29513 -12.17765,-0.57306 -10.74498,1.43266 c 0,0 -11.17478,0.8596 -12.32092,1.00287 -1.14613,0.14326 -9.31231,1.71919 -9.31231,1.00286 0,-0.71633 -3.58167,-7.16332 -3.58167,-7.16332 l -5.15759,-5.01433 -1.7192,-3.43839 -5.73065,2.86533 -4.7278,-0.28654 -4.29799,-4.01146 -2.43553,2.5788 -3.15186,1.86246 -4.58453,0.8596 -4.01146,0.71633 -0.4298,4.01147 -3.00859,3.00859 -2.43553,2.43553 -8.73926,-1.7192 -4.72779,-1.14613 -1.14613,-8.16619 c 0,0 1.57593,-2.72206 0.71633,-3.15186 -0.8596,-0.4298 -5.87392,-6.01719 -5.87392,-6.01719 l -3.58167,-3.29513 c 0,0 0.71634,-2.14899 0,-2.57879 -0.71633,-0.4298 -2.57879,-1.00287 -2.57879,-1.00287 l -4.15473,-0.8596 c 0,0 0.4298,-2.43553 -1.00286,-2.14899 -1.43267,0.28653 -2.72207,1.57593 -3.0086,2.29226 -0.28653,0.71633 -0.4298,4.58452 -0.4298,4.58452 l -3.0086,4.01147 2.149,2.00573 0.14327,4.72779 -1.2894,4.01146 -1.86246,2.149 c 0,0 -0.71634,2.29226 -0.71634,3.00859 0,0.71633 -0.4298,3.72493 -0.4298,3.72493 0,0 3.29513,2.86533 3.72493,3.15186 0.4298,0.28653 1.7192,5.44413 1.7192,5.44413 l -2.149,6.01719 -3.29513,1.43266 c 0,0 -1.43266,2.149 -1.43266,3.4384 0,1.2894 4.44126,6.87679 4.44126,6.87679 l 1.14613,2.57879 -4.15473,4.01146 -0.85959,3.58167 3.29512,2.14899 0.8596,2.5788 4.7278,-1.43267 3.43839,-3.72492 5.15759,2.43553 6.59026,1.86246 4.15473,-3.58166 4.44126,-0.28653 4.15472,-2.149 c 0,0 -0.14326,-3.15186 1.00287,-1.7192 1.14613,1.43267 0.4298,3.72493 0.4298,3.72493 l 3.00859,0.4298 0.4298,-3.29513 3.72493,-0.8596 c 0,0 -0.28653,-2.86533 0.14327,-3.15186 0.4298,-0.28653 4.58452,-0.8596 4.58452,-0.8596 l 1.2894,2.29226 c 0,0 1.86247,2.72207 2.5788,2.5788 0.71633,-0.14327 4.44126,1.14613 4.44126,1.14613 l 4.29799,2.5788 3.29513,-1.57593 3.8682,2.00573 1.86246,-2.149 6.87679,1.43266 6.44699,-0.42979 3.29513,-1.00287 3.00859,1.43266 z"
       id="path3834"
       inkscape:connector-curvature="0" />
  </g>
</svg>
