<?xml version="1.0" encoding="UTF-8" standalone="no"?>
<!-- Created with Inkscape (http://www.inkscape.org/) -->

<svg
   xmlns:dc="http://purl.org/dc/elements/1.1/"
   xmlns:cc="http://creativecommons.org/ns#"
   xmlns:rdf="http://www.w3.org/1999/02/22-rdf-syntax-ns#"
   xmlns:svg="http://www.w3.org/2000/svg"
   xmlns="http://www.w3.org/2000/svg"
   xmlns:sodipodi="http://sodipodi.sourceforge.net/DTD/sodipodi-0.dtd"
   xmlns:inkscape="http://www.inkscape.org/namespaces/inkscape"
   width="1920px"
   height="1080px"
   viewBox="0 0 1920 1080"
   version="1.1"
   id="SVGRoot"
   sodipodi:docname="7.svg"
   inkscape:version="0.92.4 (5da689c313, 2019-01-14)">
  <defs
     id="defs3748" />
  <sodipodi:namedview
     id="base"
     pagecolor="#ffffff"
     bordercolor="#666666"
     borderopacity="1.0"
     inkscape:pageopacity="0.0"
     inkscape:pageshadow="2"
     inkscape:zoom="6.9800011"
     inkscape:cx="837.41316"
     inkscape:cy="250.59451"
     inkscape:document-units="px"
     inkscape:current-layer="layer1"
     showgrid="false"
     inkscape:window-width="2880"
     inkscape:window-height="1526"
     inkscape:window-x="-11"
     inkscape:window-y="-11"
     inkscape:window-maximized="1" />
  <metadata
     id="metadata3751">
    <rdf:RDF>
      <cc:Work
         rdf:about="">
        <dc:format>image/svg+xml</dc:format>
        <dc:type
           rdf:resource="http://purl.org/dc/dcmitype/StillImage" />
        <dc:title></dc:title>
      </cc:Work>
    </rdf:RDF>
  </metadata>
  <g
     inkscape:label="Layer 1"
     inkscape:groupmode="layer"
     id="layer1">
    <path
       style="fill:none;stroke:#000000;stroke-width:1px;stroke-linecap:butt;stroke-linejoin:miter;stroke-opacity:1"
       d="m 837.96549,881.28943 8.88252,12.46418 4.72779,2.43553 10.17192,0.4298 16.90544,-1.7192 11.89112,-1.2894 4.44126,0.8596 8.30945,-8.59599 12.60745,-17.4785 9.59885,-6.30373 1.43267,-14.04011 -1.14613,-8.02292 2.72206,-9.88539 4.29799,-3.58166 10.17192,-12.46418 c 0,0 8.88252,-2.00573 9.16905,-2.57879 0.28654,-0.57307 0.8596,-6.447 0.8596,-6.447 l -10.74498,-5.01432 -8.16619,-0.4298 -6.87679,-1.43266 -7.73639,2.57879 5.01433,3.0086 -5.73066,1.28939 -5.58739,-2.00573 -7.30659,-3.00859 -7.30659,0.57306 -2.43553,3.72493 2.86533,1.43267 1.00286,3.72492 -9.16905,0.14327 -4.87106,-1.43266 -4.58453,5.30086 -5.73065,4.72779 -3.72493,1.2894 v 5.01432 l -2.72206,3.72493 -2.86533,2.86533 0.71633,3.58166 3.00859,0.57307 3.29513,-2.5788 c 0,0 0.57307,1.00287 0.8596,1.57593 0.28653,0.57307 2.00573,3.58166 2.00573,3.58166 l -1.43266,1.14613 v 2.5788 l 3.86819,-0.71633 3.4384,0.71633 h 2.14899 l 0.71634,1.43267 -2.5788,0.28653 -2.00573,2.29226 0.4298,3.0086 4.58453,1.57593 -2.43553,3.00859 -2.29227,-0.8596 -1.43266,-2.86532 -2.00573,-1.7192 -2.149,0.28653 0.71633,2.29226 -0.14326,2.5788 -1.43267,1.86246 h -2.29226 l -2.72206,-2.29226 -2.149,-0.14327 -3.4384,0.8596 -2.57879,-3.00859 -4.01146,0.57306 -3.72493,-1.28939 c 0,0 -3.4384,-0.14327 -3.29513,0.42979 0.14327,0.57307 1.7192,3.8682 1.7192,3.8682 l 4.58453,1.86246 4.72779,5.73066 0.28653,4.87106 -1.57593,0.28653 -1.14613,-2.00573 -2.29226,-2.57879 -2.86533,-1.43267 -2.72207,2.72207 -2.14899,2.57879 0.4298,2.72206 3.15186,1.00287 2.43553,2.72206 1.2894,2.43553 -5.1576,-0.28653 -1.14613,2.29226 z"
       id="path3836"
       inkscape:connector-curvature="0" />
  </g>
</svg>
