<?xml version="1.0" encoding="UTF-8" standalone="no"?>
<!-- Created with Inkscape (http://www.inkscape.org/) -->

<svg
   xmlns:dc="http://purl.org/dc/elements/1.1/"
   xmlns:cc="http://creativecommons.org/ns#"
   xmlns:rdf="http://www.w3.org/1999/02/22-rdf-syntax-ns#"
   xmlns:svg="http://www.w3.org/2000/svg"
   xmlns="http://www.w3.org/2000/svg"
   xmlns:sodipodi="http://sodipodi.sourceforge.net/DTD/sodipodi-0.dtd"
   xmlns:inkscape="http://www.inkscape.org/namespaces/inkscape"
   width="1920px"
   height="1080px"
   viewBox="0 0 1920 1080"
   version="1.1"
   id="SVGRoot"
   sodipodi:docname="8.svg"
   inkscape:version="0.92.4 (5da689c313, 2019-01-14)">
  <defs
     id="defs3748" />
  <sodipodi:namedview
     id="base"
     pagecolor="#ffffff"
     bordercolor="#666666"
     borderopacity="1.0"
     inkscape:pageopacity="0.0"
     inkscape:pageshadow="2"
     inkscape:zoom="3.4900005"
     inkscape:cx="837.41316"
     inkscape:cy="445.43689"
     inkscape:document-units="px"
     inkscape:current-layer="layer1"
     showgrid="false"
     inkscape:window-width="2880"
     inkscape:window-height="1526"
     inkscape:window-x="-11"
     inkscape:window-y="-11"
     inkscape:window-maximized="1" />
  <metadata
     id="metadata3751">
    <rdf:RDF>
      <cc:Work
         rdf:about="">
        <dc:format>image/svg+xml</dc:format>
        <dc:type
           rdf:resource="http://purl.org/dc/dcmitype/StillImage" />
        <dc:title></dc:title>
      </cc:Work>
    </rdf:RDF>
  </metadata>
  <g
     inkscape:label="Layer 1"
     inkscape:groupmode="layer"
     id="layer1">
    <path
       style="fill:none;stroke:#000000;stroke-width:1px;stroke-linecap:butt;stroke-linejoin:miter;stroke-opacity:1"
       d="m 975.07149,841.89115 11.17478,-12.32091 17.76503,-12.89398 9.7421,-16.04585 13.4671,-2.86532 12.6074,-2.5788 13.4671,-12.89398 10.3152,-4.29799 14.0401,-0.8596 14.6131,-5.1576 12.321,-4.87106 12.3209,-28.36675 12.0344,-19.19771 2.5788,-11.17478 -5.7307,-2.86533 -17.4785,-1.14613 -29.7994,-1.7192 -10.0287,-3.43839 -9.4556,0.57306 -10.3152,2.00573 -12.0343,4.01146 -21.2035,-4.87106 -16.33235,-3.43839 -18.05157,-12.03438 -7.73639,-9.74212 -8.30946,-21.20344 c 0,0 3.4384,-11.17478 3.4384,-12.03438 0,-0.8596 -7.73639,-20.0573 -8.59599,-24.64183 -0.8596,-4.58453 -12.03438,-23.20917 -12.03438,-23.20917 0,0 -5.15759,-3.15186 -8.02292,-2.86532 -2.86533,0.28653 -6.01719,2.86532 -6.01719,2.86532 l -10.88825,-6.30372 8.59598,-12.60745 c 0,0 2.86533,-11.74785 1.7192,-12.60745 -1.14613,-0.85959 -7.73639,2.29227 -7.73639,2.29227 0,0 -3.72493,5.73066 -3.72493,6.59025 0,0.8596 -12.89398,5.44413 -12.89398,5.44413 h -7.73639 l -5.73065,4.01146 -3.72493,6.01719 -4.87106,-0.57306 -12.89398,7.73638 -10.31519,5.73066 -9.45558,2.5788 -7.16332,2.57879 1.71919,3.4384 -1.43266,3.15186 -2.5788,-2.29226 -2.57879,1.14613 -2.86533,5.73066 -6.87679,1.7192 -0.57307,4.29799 -3.43839,3.43839 -2.5788,3.4384 -6.01719,1.14613 v 6.01719 l 8.59599,1.43267 6.87679,2.57879 5.73065,-3.43839 c 0,0 4.01146,2.57879 4.298,3.43839 0.28653,0.8596 7.44985,4.298 8.59599,5.15759 1.14613,0.8596 4.29799,3.4384 4.29799,3.4384 l 8.88252,-1.43266 4.87106,5.44412 8.59599,0.57307 8.02292,-4.298 12.89398,-6.01719 4.87106,-5.44412 1.14613,-6.87679 8.59599,-0.57307 0.85959,6.87679 0.57307,5.73066 c 0,0 -2.29226,0.8596 -2.5788,2.29226 -0.28653,1.43267 -1.71919,6.59026 -1.71919,6.59026 0,0 -1.7192,0.8596 -1.7192,1.7192 0,0.85959 -6.59026,8.30945 -6.59026,8.30945 l 3.15186,3.4384 2.00573,6.30372 -4.58452,4.29799 -19.77077,-3.72492 -14.32665,-3.15187 -7.73639,1.43267 -7.73638,-4.01146 -7.73639,-4.58453 -13.18052,2.86533 h -5.15759 l -5.15759,-2.5788 c 0,0 -9.16905,6.30373 -9.45559,7.44986 -0.28653,1.14613 0,9.45558 0,9.45558 l -4.87106,-4.29799 -2.86533,-4.01146 -2.57879,-1.14613 3.72493,-5.15759 -0.28654,-4.298 -9.45558,-9.16905 0.8596,6.87679 -4.298,4.01146 -9.16905,3.4384 0.57306,2.57879 7.73639,1.14613 -4.87106,4.01146 -11.46131,2.00573 -3.15186,-2.86532 -8.88252,2.86532 -2.5788,6.87679 -8.30946,-2.00573 3.4384,-5.15759 -9.45559,-3.43839 -4.58452,5.15759 2.86533,9.74212 -5.1576,4.01146 -10.31518,-1.7192 v -4.29799 l -0.28653,-4.01146 -9.45559,1.71919 h -8.30945 l -6.30373,5.73066 -6.59025,1.7192 c 0,0 -0.28654,4.87106 -2.86533,4.58453 -2.5788,-0.28654 -10.31519,0.85959 -10.31519,0.85959 l -9.45558,-6.30372 -10.31519,-2.29226 -10.02865,6.01719 -4.58453,5.15759 c 0,0 -4.01146,-2.00573 -4.01146,-1.14613 0,0.8596 1.7192,12.89398 1.7192,12.89398 l 7.44985,11.17478 2.00574,8.59599 11.17478,6.30372 5.73066,3.4384 4.29799,-4.58453 11.46132,0.8596 2.57879,-11.17478 6.59026,-6.59026 5.44413,3.15186 9.16905,3.72493 7.73639,-2.57879 -1.43267,-7.73639 21.20344,3.15186 11.46131,5.44412 9.45559,1.7192 10.31518,-0.28653 2.5788,4.58453 6.01719,-3.4384 7.73639,4.01146 6.59026,0.28653 11.46131,4.01146 10.02865,-4.29799 9.45559,-2.5788 3.4384,2.86533 -2.5788,0.57307 -1.43266,5.44412 2.57879,2.5788 6.01719,-1.7192 4.87106,1.7192 v 6.01719 l -3.15186,3.15186 -6.87679,7.44986 -1.7192,6.01719 4.298,-4.87106 5.15759,1.7192 -2.29226,7.73639 -4.58453,4.29799 4.01146,5.15759 0.57307,6.01719 0.57306,8.30946 6.59026,0.28653 2.57879,-3.43839 2.29227,2.57879 2.29226,7.73639 c 0,0 -6.01719,7.44986 -4.58453,9.16905 1.43267,1.7192 5.1576,6.87679 5.1576,6.87679 0,0 3.15186,-0.85959 4.29799,-0.85959 1.14613,0 2.86533,4.29799 2.86533,4.29799 l 3.43839,-4.87106 3.15187,0.8596 3.43839,-2.5788 0.28653,-6.01719 2.86533,-1.14613 2.00573,-2.5788 6.01719,-4.01146 4.01146,-2.86533 10.02866,-4.87106 6.59025,-1.71919 -0.28653,6.87679 -8.30945,4.29799 -10.31519,6.87679 -6.01719,12.89398 -4.29799,7.73639 3.43839,9.16905 -4.01146,10.02865 -8.59599,2.00573 0.57307,5.1576 3.43839,-0.57307 5.1576,3.15186 11.74785,-0.57306 12.03438,-5.44413 9.16905,-9.45558 9.45559,-8.30946 11.74785,2.5788 13.75358,-2.00573 3.72492,4.58452 6.01719,1.14614 16.04585,4.58452 z"
       id="path3838"
       inkscape:connector-curvature="0" />
  </g>
</svg>
