<?xml version="1.0" encoding="UTF-8" standalone="no"?>
<!-- Created with Inkscape (http://www.inkscape.org/) -->

<svg
   xmlns:dc="http://purl.org/dc/elements/1.1/"
   xmlns:cc="http://creativecommons.org/ns#"
   xmlns:rdf="http://www.w3.org/1999/02/22-rdf-syntax-ns#"
   xmlns:svg="http://www.w3.org/2000/svg"
   xmlns="http://www.w3.org/2000/svg"
   xmlns:sodipodi="http://sodipodi.sourceforge.net/DTD/sodipodi-0.dtd"
   xmlns:inkscape="http://www.inkscape.org/namespaces/inkscape"
   width="200mm"
   height="200mm"

   version="1.1"
   id="svg3807"
   inkscape:version="0.92.4 (5da689c313, 2019-01-14)"
   sodipodi:docname="haus.svg">
  <g
     inkscape:label="Layer 1"
     inkscape:groupmode="layer"
     id="layer1">
    <path
       style="fill:none;stroke:#000000;stroke-width:0.26431268px;stroke-linecap:butt;stroke-linejoin:miter;stroke-opacity:1"
       d="M10,10 m 118.97853,92.667442 c -1.79171,-0.42523 -3.34766,-1.27568 -3.34766,-1.27568 l -0.66011,0.66146 0.47151,0.75595 -0.28291,0.0945 -0.61295,-0.51971 h -0.8487 l -1.08446,0.94494 -0.3772,-0.14174 0.0471,-0.42523 1.22591,-0.85045 0.61295,-0.85045 0.2829,-0.42522 -0.99015,-0.56697 -0.56581,-1.22843 -0.23575,-0.56697 -0.61295,-0.42522 -0.1886,0.42522 0.0943,1.41742 -0.80155,0.42523 -0.3772,-0.0472 -0.2829,-0.14175 0.14145,-0.8032 -0.2829,-1.03944 -0.5658,-0.14174 0.33005,-0.8032 v -0.66147 l -0.6601,-0.23623 -0.3772,0.33073 0.14145,1.08668 -0.33006,1.46467 -1.0373,0.99219 -0.89585,1.7954 -0.2829,0.99219 -0.99016,-0.28348 -1.6974,-0.37798 -0.56581,-0.85045 -0.14145,-0.85045 -1.65025,-0.70871 -1.13161,-0.42523 0.2829,-0.85045 1.08446,-0.61421 1.69741,-0.42523 0.89585,-0.0945 2.0746,-0.75595 1.08446,-1.27568 0.5658,-1.22843 -0.4715,-0.61422 1.4145,-0.89769 h -1.08445 l -1.1316,1.51191 -1.36736,1.65365 -1.6974,0.56697 -1.41451,-0.28348 1.55596,-1.08669 0.42435,-1.32292 -0.42435,-0.70871 c 0,0 -1.03731,0.75596 -0.94301,0.56696 0.0943,-0.18899 -0.70725,1.18119 -0.70725,1.18119 l -0.80155,1.41742 -0.4715,-1.93714 -0.84871,-0.23624 -0.0471,2.22062 -1.367361,0.9922 -0.56579,-0.14175 c 0,0 0,-2.22062 0.14145,-1.98438 0.14145,0.23623 -0.14145,-4.81922 -0.14145,-4.81922 l -1.17876,-1.27568 -0.6601,0.8977 0.3772,4.20501 -1.1316,1.27567 h -0.56581 l 0.47151,-3.77978 -0.89586,-2.40961 -0.5658,1.22843 0.2829,0.70871 0.0472,1.7009 -0.61295,1.13393 0.1886,1.46467 -0.42435,0.56696 -0.5658,-0.42522 -0.61296,-2.17338 -0.2829,-1.7009 1.17876,-1.84264 0.14145,-1.22843 -0.5658,-0.0945 -0.89585,1.03944 c 0,0 -0.47151,0.37798 -0.51866,0.0473 -0.0472,-0.33073 -0.99015,-0.99219 -0.99015,-0.99219 l -0.70725,1.22843 0.6601,1.32292 0.7544,2.12613 -0.5658,1.37017 0.70725,1.98439 -0.0471,0.85045 -1.2259,-1.41742 -0.84871,-1.22843 -1.6974,0.14174 -0.33005,-0.56697 2.5461,-2.83483 -0.42435,-1.60641 -1.69741,-0.85045 0.18861,1.55916 -1.69741,2.17337 -0.4715,-0.14174 0.0471,-3.59079 -0.89585,0.70871 -0.94301,1.55916 -0.0472,1.84264 c 0,0 -1.98031,1.22843 -1.98031,1.03944 0,-0.18899 -2.21605,-1.18118 -2.21605,-1.18118 l -0.14145,-1.65365 -1.13161,-0.8977 -0.99015,1.41741 -0.5658,1.46467 0.80155,2.26787 -0.70725,0.99219 -1.50881,0.94495 -2.73471,-1.22843 -2.82901,0.42523 -2.97046,0.94494 -1.6974,-0.28348 -0.94301,-0.0945 -1.4145,1.51191 -2.02746,1.98438 -5.37512,0.42523 -1.36735,-2.78759 -2.97046,-2.40961 -2.12176,-1.74815 h -6.365265 l -2.414735,0.34953 -2.400496,-1.00227 2.467176,-1.00226 v -1.40318 l 1.60033,0.0668 0.800163,0.13364 0.800166,-0.735 -0.06668,-2.20498 0.266724,-1.40318 1.000207,-0.20045 0.533443,-2.00453 4.00082,2.40544 1.40029,1.1359 v 1.06908 l 1.86705,0.33409 0.20004,1.00227 2.60054,0.40091 0.53344,2.33862 2.26713,0.80181 1.33362,0.0668 0.80016,-1.06909 -2.33381,-1.00226 -4.06751,-4.40997 -1.93373,-2.80635 1.73369,0.26727 2.40049,0.20045 2.00041,1.93772 3.00062,2.07135 -0.60012,-2.00453 -1.60033,-1.26954 -2.60053,-2.53907 -1.80037,-0.80182 -1.7337,-1.87089 -1.0002,-4.94452 0.93352,-1.26953 3.4007,1.40317 1.60033,1.60363 2.00042,0.80181 0.86684,1.20272 2.53385,1.67044 2.60054,0.60136 1.26693,2.13817 0.93352,1.67044 -1.0002,1.60363 0.0667,1.40317 1.00021,-0.4009 1.93372,-2.07136 2.20046,2.27181 0.86685,-1.00227 -1.00021,-1.67044 4.33423,-0.93545 -0.33341,-1.06908 -3.80078,0.60136 -3.26734,-2.6059 5.66783,-1.33635 3.40071,0.60136 v -0.80182 l -1.00021,-1.06908 2.13377,-0.33409 -0.20004,-0.86863 -2.00041,-0.13363 c 0,0 -1.33361,1.06908 -1.33361,0.80181 0,-0.26727 -4.66763,-0.0668 -4.66763,-0.0668 l -3.4007,-0.20045 -4.40091,-2.33862 -2.00041,-2.47226 -0.80016,-2.53907 -0.60012,-2.00453 1.46697,-2.07136 1.0002,0.26728 1.93373,0.73499 1.46697,1.20272 0.60013,0.60136 1.20024,0.80181 h 1.60033 l 3.00062,1.80408 c 0,0 1.00021,1.00227 1.73369,0.80181 0.73348,-0.20045 1.46697,-0.53454 1.46697,-0.53454 l -1.20025,-0.86863 -2.00041,-1.93771 c 0,0 -3.93414,-1.00227 -3.60074,-0.80182 0.3334,0.20045 -1.20025,-1.20272 -1.20025,-1.20272 l -1.40029,-2.60589 -2.40049,-0.46772 -0.40008,-2.13817 -0.86685,-1.20272 -0.20004,-1.46999 c 0,0 0.86684,-1.93772 1.06689,-1.93772 0.20003,0 1.80037,0.66818 1.80037,0.66818 l 1.93372,0.93545 4.60096,1.73726 1.46696,0.60136 0.13336,-1.20272 -2.33381,-1.33635 -1.26693,-1.40318 c 0,0 -1.3336,-1.67044 -1.60033,-1.80407 -0.26672,-0.13364 -1.33361,-1.20272 -1.33361,-1.20272 0,0 1.80037,-0.0668 2.00042,-0.0668 0.20004,0 1.80037,-0.33409 1.80037,-0.33409 0,0 3.20066,3.14043 3.20066,2.87316 0,-0.26727 2.00041,0.66818 2.00041,0.66818 l -2.66722,-3.14044 -1.60033,-1.73726 -2.53385,0.0668 0.73348,-1.60362 1.40029,-1.00227 2.00041,1.26954 -0.73348,-1.67044 c 0,0 2.00041,0.4009 2.33381,0.26726 0.3334,-0.13363 2.20046,-0.13363 2.20046,-0.13363 l 1.40028,1.00227 0.80017,1.06908 0.86684,0.80181 1.93374,0.66818 1.0002,1.20272 -0.0667,1.80408 -0.53344,1.80408 -1.33361,0.80181 1.00021,0.53454 1.20024,-1.33635 0.93353,-1.46999 h 2.00041 l 0.46676,1.60362 -0.40008,2.20499 -0.26672,2.07135 -1.40029,0.86863 c 0,0 -0.93353,1.53681 -1.13356,1.73726 -0.20005,0.20045 1.20024,0.60136 1.20024,0.60136 l 1.53365,-2.00453 0.46676,-2.00454 1.13357,-1.33635 0.60012,2.2718 -0.93352,1.26954 0.60012,1.40317 1.20025,-4.81087 1.13357,0.93545 -0.60013,2.07134 -2.73389,3.54134 0.3334,0.46773 2.20045,-2.40544 1.00021,-1.06908 0.46676,0.86863 -0.26672,2.13816 -1.00021,2.27181 -0.20004,1.1359 2.26713,-4.00906 0.13337,-4.00907 0.6668,-2.20499 1.33361,0.735 1.26693,-0.26727 0.53344,2.13817 0.86684,0.4009 0.53345,2.00453 0.60012,2.07136 -2.13377,5.34541 -0.60013,2.47226 1.00021,0.20045 0.60012,-1.46999 -0.0667,-2.00453 1.40029,-1.40317 1.40029,-5.41224 0.86685,2.40544 0.933518,-1.00226 0.40008,2.20498 0.26673,2.00453 -2.000408,4.40997 1.733678,0.46773 0.40009,-1.8709 1.80037,-3.54134 1.06689,-0.20045 -1.00021,-1.00227 -0.46676,-4.47679 -1.33361,-1.06908 -1.20025,-1.33636 0.80017,-1.06908 -0.60013,-1.33635 3.00062,-0.80182 -0.26672,-0.80181 -2.33382,1.00227 -2.867248,-1.33636 -2.00042,-1.46999 -4.53426,-2.47226 -1.86705,-1.00226 -2.33382,-2.53908 -0.86684,-2.00453 c 0,0 1.53365,-1.00226 1.86705,-1.00226 0.3334,0 3.33402,-0.80182 3.33402,-0.80182 l 2.00041,0.0668 1.60033,1.00227 2.4005,0.4009 0.26672,1.20272 1.40029,0.66818 0.20004,-0.66818 -0.86685,-1.00226 0.26672,-0.60136 0.93353,0.80181 0.20004,-0.80181 1.800368,-0.0668 0.80017,-0.53454 1.20024,-0.26727 1.00021,0.0668 -1.13357,-0.86863 -1.06688,0.46772 -3.934148,0.13363 0.60013,-1.33635 1.200238,-0.40091 0.80017,-1.20272 0.3334,-1.06908 -0.93353,0.40091 -1.266918,1.40317 -1.33362,0.80181 -2.46717,-0.33409 -0.93352,-0.80181 1.0002,-1.46999 0.20004,-1.40318 v -0.60135 l 2.20045,0.0668 0.20005,-0.86863 -2.60054,0.26727 -1.06689,2.13817 -1.73369,0.80182 -1.80037,0.26726 0.40009,-1.67044 1.13356,-0.40091 0.26672,-1.00226 -0.60012,-0.13364 -1.26693,1.1359 -1.3336,0.80182 -0.60013,1.46999 -2.00041,0.53454 -1.26693,-0.40091 -2.40049,-1.1359 -1.60033,-1.26954 -0.73349,-1.40317 0.40009,-0.73499 2.00041,1.20272 1.40029,0.13363 0.13336,-0.53454 1.20024,-0.13364 0.26673,-0.93544 v -0.735 h -1.00021 l -1.00021,-1.46999 -1.46696,-2.00453 1.0002,-0.40091 1.80037,1.46999 0.60013,-0.66817 1.60033,0.20045 1.46696,-1.33636 -0.86684,-0.60136 0.26672,-0.93544 1.93373,0.60135 1.20025,0.60137 1.46697,1.20271 h 1.0002 v 1.53681 l 1.40029,0.26727 1.60033,-1.00226 0.3334,-2.07135 1.00021,-0.33409 2.000408,1.93771 1.26693,1.26954 h 1.00021 l -0.20005,-1.60363 -1.0002,-1.06908 2.33381,0.40091 0.0667,1.8709 0.53344,2.40543 2.80058,1.13591 v 1.46999 l 0.86684,-0.26728 -0.0667,1.06909 -0.53344,0.4009 0.93352,0.20046 0.80017,-0.80182 0.46676,0.40091 -0.0667,0.735 -0.80017,0.80181 -0.80016,0.46772 1.26693,1.20272 -1.06689,1.40317 0.26672,1.13591 1.00021,-1.73726 1.40029,0.33409 0.13336,1.1359 1.13357,-1.80408 0.0667,2.00453 2.20045,0.26727 1.20025,-1.40317 0.26672,1.67044 0.73348,0.60136 0.26673,1.40317 -2.4005,1.13591 0.40008,0.46772 1.80037,-1.00227 1.00021,0.86863 0.53344,1.26954 0.66681,-0.33409 2.60053,0.53454 0.53344,0.46773 -0.93352,0.53454 0.93352,0.86863 0.66681,0.735 -0.80017,0.26727 -0.20004,1.00226 -1.0002,0.20046 0.60012,1.06908 1.13357,0.0668 -0.93353,1.00226 0.40008,0.46773 0.0667,1.80408 1.26693,-0.20045 0.40008,-1.00227 1.00021,1.20272 -0.26672,1.53681 -1.20025,0.73499 0.86685,0.40091 1.06688,-1.40317 -0.0667,-2.13817 c 0,0 -0.60012,-1.33636 -0.3334,-1.1359 0.26672,0.20045 2.53386,-0.40091 2.53386,-0.40091 l 1.20025,2.93998 -0.26673,0.40091 -1.93373,-0.86863 0.60013,0.86863 0.26672,1.40317 0.93352,0.60136 1.73369,-0.60136 2.00041,-0.40091 1.60034,1.73726 0.26672,1.26954 -2.80058,0.33409 -1.80037,0.20045 -1.00021,0.46773 h -1.53365 l -1.40028,0.53454 0.6668,1.20272 1.80037,-0.80181 3.33402,-0.80182 0.66681,0.0668 0.0667,0.40091 v 0.93545 l -2.0671,0.46772 0.46677,0.735 2.06709,-0.40091 1.13356,-0.33409 0.93353,1.20272 0.53344,0.80181 c 0,0 -0.13336,0.66818 -0.20004,0.93545 -0.0667,0.26727 -0.93352,1.26954 -0.93352,1.26954 l 0.73348,1.1359 -1.46697,3.47452 -0.80016,1.20272 c 0,0 -2.00041,0.60136 -2.20046,0.60136 -0.20004,0 -1.20024,0.53454 -1.20024,0.53454 l 1.3336,0.86863 v -0.735 l 0.93353,1.00227 0.93353,0.33409 0.0667,1.1359 -1.20025,0.40091 -0.6668,1.67044 -1.60033,0.93545 -3.73411,-0.80181 -1.26692,-2.80635 -1.20025,-2.00453 -1.26693,-0.33409 -2.13377,-0.20045 1.20024,1.1359 c 0,0 1.13357,0.66818 1.40029,0.86863 0.26672,0.20045 1.00021,1.33636 1.00021,1.33636 l 0.13336,0.73499 -0.6668,1.1359 0.6668,0.93545 0.0667,0.86863 v 0.60136 l 0.86684,0.80181 1.06689,0.40091 1.26693,0.13363 1.00021,-0.53454 h 1.20024 l 0.86685,0.80182 h 1.06688 c 0,0 0.0667,0.4009 0.40009,0.53454 0.3334,0.13363 0.3334,1.1359 0.3334,1.1359 l -0.93353,0.53454 -1.3336,0.93545 -0.66681,0.735 -0.6668,1.26953 c 0,0 0.6668,0.40091 0.93352,0.26728 0.26672,-0.13364 1.40029,-1.00227 1.40029,-1.00227 l 1.06689,-1.67045 c 0,0 0,-0.46772 0.3334,-0.60136 0.3334,-0.13363 1.06689,-0.20045 1.06689,-0.20045 l 0.53344,0.40091 1.26693,0.60136 -0.53345,1.26953 -0.20004,1.53681 -0.80016,2.60589 -1.00021,1.26954 -1.33361,0.93545 -0.93352,0.86863 v 0.73499 h 1.46697 l 0.53344,-0.93545 0.86684,-0.4009 0.60013,0.53454 c 0,0 -0.80017,0.735 -1.00021,0.86864 -0.20004,0.13363 -2.53386,2.80634 -2.53386,2.80634 l -1.20024,1.80408 -3.00062,1.20271 -1.33361,0.735 -1.13356,-0.80181 -0.46677,-1.1359 0.13337,-1.67045 0.60012,-1.33635 0.60012,-1.20272 0.20004,-1.20272 -0.0667,-1.06908 -0.53344,-0.93545 -0.60013,0.13363 -0.6668,1.33636 -0.73348,1.06908 -0.40009,0.20046 z"
       id="path3772"
       inkscape:connector-curvature="0" />
  </g>
</svg>
