<?xml version="1.0" encoding="UTF-8" standalone="no"?>
<!-- Created with Inkscape (http://www.inkscape.org/) -->

<svg
   xmlns:dc="http://purl.org/dc/elements/1.1/"
   xmlns:cc="http://creativecommons.org/ns#"
   xmlns:rdf="http://www.w3.org/1999/02/22-rdf-syntax-ns#"
   xmlns:svg="http://www.w3.org/2000/svg"
   xmlns="http://www.w3.org/2000/svg"
   xmlns:sodipodi="http://sodipodi.sourceforge.net/DTD/sodipodi-0.dtd"
   xmlns:inkscape="http://www.inkscape.org/namespaces/inkscape"
   width="100%"
   height="100%"
   viewBox="0 0 1920 1080"
   version="1.1"
   id="SVGRoot"
   sodipodi:docname="iceland.svg"
   inkscape:version="0.92.4 (5da689c313, 2019-01-14)">
 
  <g
     inkscape:label="Layer 1"
     inkscape:groupmode="layer"
     id="layer1">
    <path
       style="fill:none;stroke:#000000;stroke-width:1.21405768px;stroke-linecap:butt;stroke-linejoin:miter;stroke-opacity:1"
       d="m 669.56818,695.78927 13.53715,-14.99109 21.5206,-15.68835 11.8016,-19.52328 16.31407,-3.48629 15.27264,-3.13768 16.31407,-15.68835 12.49586,-5.22944 17.0082,-1.04589 17.70234,-6.27535 14.92569,-5.92672 14.92557,-34.51436 14.57849,-23.35821 3.12397,-13.59657 -6.94218,-3.4863 -21.1735,-1.39452 -36.09906,-2.09178 -12.14878,-4.18356 -11.45454,0.69726 -12.49585,2.44041 -14.57838,4.88082 -25.68597,-5.92671 -19.78504,-4.18356 -21.86771,-14.64246 -9.37188,-11.85342 -10.0661,-25.79862 c 0,0 4.16528,-13.59657 4.16528,-14.64246 0,-1.04589 -9.37188,-24.4041 -10.4132,-29.98218 -1.04132,-5.57809 -14.57847,-28.23904 -14.57847,-28.23904 0,0 -6.24792,-3.83493 -9.71898,-3.48629 -3.47107,0.34863 -7.28924,3.48629 -7.28924,3.48629 l -13.19005,-7.66985 10.41319,-15.33973 c 0,0 3.47106,-14.29383 2.08264,-15.33972 -1.38842,-1.04588 -9.37188,2.78905 -9.37188,2.78905 0,0 -4.51239,6.9726 -4.51239,8.01848 0,1.04589 -15.61979,6.62398 -15.61979,6.62398 h -9.37188 l -6.94213,4.88082 -4.51238,7.32123 -5.90082,-0.69726 -15.61979,9.413 -12.49585,6.9726 -11.45451,3.13768 -8.67766,3.13766 2.08263,4.18357 -1.73552,3.83493 -3.12397,-2.78904 -3.12395,1.39452 -3.47107,6.9726 -8.33056,2.09178 -0.69421,5.22945 -4.16528,4.18355 -3.12396,4.18357 -7.28924,1.39452 v 7.32123 l 10.4132,1.74315 8.33056,3.13767 6.94212,-4.18356 c 0,0 4.85949,3.13766 5.20661,4.18356 0.3471,1.04589 9.02476,5.22945 10.4132,6.27533 1.38843,1.04589 5.2066,4.18357 5.2066,4.18357 l 10.7603,-1.74315 5.90081,6.62397 10.4132,0.69726 9.71899,-5.22945 15.61979,-7.32123 5.90081,-6.62397 1.38843,-8.36712 10.4132,-0.69726 1.04131,8.36712 0.69422,6.9726 c 0,0 -2.77685,1.04589 -3.12397,2.78904 -0.3471,1.74315 -2.08263,8.01849 -2.08263,8.01849 0,0 -2.08264,1.04589 -2.08264,2.09178 0,1.04588 -7.98346,10.11027 -7.98346,10.11027 l 3.81817,4.18356 2.42975,7.66986 -5.5537,5.22945 -23.95035,-4.53219 -17.35534,-3.83494 -9.37188,1.74316 -9.37186,-4.88082 -9.37188,-5.57808 -15.96691,3.4863 h -6.24792 l -6.24792,-3.13768 c 0,0 -11.1074,7.66987 -11.45452,9.06439 -0.3471,1.39452 0,11.50478 0,11.50478 l -5.90081,-5.22944 -3.47107,-4.88082 -3.12395,-1.39452 4.51239,-6.27534 -0.34712,-5.22946 -11.45451,-11.15615 1.04132,8.36712 -5.2066,4.88082 -11.10741,4.18356 0.69421,3.13767 9.37188,1.39451 -5.90082,4.88082 -13.88425,2.44041 -3.81817,-3.48629 -10.76031,3.48629 -3.12396,8.36712 -10.0661,-2.44041 4.16529,-6.27533 -11.45453,-4.18356 -5.55369,6.27534 3.47106,11.85342 -6.24792,4.88082 -12.49584,-2.09178 v -5.22945 l -0.3471,-4.88082 -11.45452,2.09177 h -10.06609 l -7.63635,6.97261 -7.98344,2.09178 c 0,0 -0.34712,5.92671 -3.47107,5.57808 -3.12396,-0.34863 -12.49584,1.04588 -12.49584,1.04588 l -11.45451,-7.66985 -12.49585,-2.78904 -12.14873,7.32123 -5.55371,6.27534 c 0,0 -4.85949,-2.44041 -4.85949,-1.39452 0,1.04589 2.08265,15.68835 2.08265,15.68835 l 9.02476,13.59657 2.42976,10.4589 13.53715,7.66985 6.94214,4.18357 5.20659,-5.57808 13.88427,1.04589 3.12395,-13.59657 7.98345,-8.01849 6.59504,3.83493 11.1074,4.53219 9.37188,-3.13766 -1.73554,-9.41302 25.6859,3.83493 13.88425,6.62396 11.45453,2.09179 12.49583,-0.34863 3.12396,5.57809 7.28924,-4.18357 9.37188,4.88082 7.98345,0.34863 13.88426,4.88081 12.14873,-5.22944 11.45452,-3.13768 4.16529,3.48631 -3.12397,0.69726 -1.73553,6.62396 3.12396,3.13768 7.28923,-2.09178 5.90082,2.09178 v 7.32123 l -3.81817,3.83493 -8.33056,9.06438 -2.08265,7.32123 5.20661,-5.92671 6.24792,2.09178 -2.77685,9.41301 -5.55371,5.22945 4.85949,6.27534 0.69422,7.32123 0.6942,10.11027 7.98346,0.34863 3.12395,-4.18355 2.77686,3.13766 2.77685,9.41301 c 0,0 -7.28924,9.06439 -5.55371,11.15616 1.73554,2.09178 6.24793,8.36712 6.24793,8.36712 0,0 3.81817,-1.04588 5.20659,-1.04588 1.38843,0 3.47107,5.22944 3.47107,5.22944 l 4.16527,-5.92671 3.81819,1.04589 4.16527,-3.13767 0.3471,-7.32123 3.47107,-1.39452 2.42975,-3.13767 7.28923,-4.88082 4.85949,-3.4863 12.14874,-5.92671 7.98345,-2.09177 -0.34711,8.36712 -10.06608,5.22944 -12.49585,8.36712 -7.28923,15.68835 -5.2066,9.41301 4.16528,11.15616 -4.85949,12.20205 -10.41321,2.44041 0.69422,6.27535 4.16528,-0.69727 6.24792,3.83493 14.23137,-0.69725 14.57848,-6.62398 11.10741,-11.50478 11.45452,-10.11028 14.23137,3.13767 16.66112,-2.4404 4.51237,5.57807 7.28924,1.39453 19.43798,5.57807 z"
       id="path3838"
       inkscape:connector-curvature="0" />
    <path
       style="fill:none;stroke:#000000;stroke-width:1.21267736px;stroke-linecap:butt;stroke-linejoin:miter;stroke-opacity:1"
       d="m 664.27961,702.33967 -12.39993,-4.44244 -9.68216,-3.73166 -10.53145,-3.02088 h -6.11503 l -2.7178,1.06618 1.01917,1.9547 3.22739,2.48776 2.37806,0.7108 -4.58627,1.77698 -11.21092,-4.97554 -6.62461,-0.5331 -3.05754,-0.88849 -8.15338,4.26476 1.69863,5.15323 -3.05753,3.73166 -6.11503,-2.48776 c 0,0 -3.90685,1.06619 -4.24657,2.13238 -0.33972,1.06618 -8.66296,5.86401 -8.66296,5.86401 l -4.0767,4.79787 -3.39725,-1.06618 -3.56709,13.14963 c 0,0 -5.94519,2.84319 -5.09588,2.84319 0.84932,0 0.84932,3.55396 0.84932,3.55396 l 5.60546,1.06618 2.71778,-3.19855 2.03835,2.31006 0.84931,7.28563 5.60546,0.71079 5.26572,0.5331 -3.56711,3.19856 c 0,0 0.50959,-0.88849 -1.18902,3.73165 -1.69862,4.62015 3.22738,3.55397 3.22738,3.55397 l -2.25488,3.86865 c 0,0 -1.44134,0.12566 -1.44134,-0.18847 0,-0.31413 -1.32121,-3.39259 -1.32121,-3.39259 l -2.70248,-3.01564 c 0,0 -2.94274,-0.56542 -2.88267,-0.18848 0.0601,0.37695 1.08099,4.33498 1.08099,4.33498 l 1.44133,4.52346 -3.00277,1.88477 -3.66337,-2.82716 -3.24298,-3.20411 c 0,0 -2.58238,1.75912 -3.18294,2.13608 -0.60055,0.37695 0.72067,1.88477 -2.52233,0.7539 -3.24299,-1.13086 -2.04188,-3.64389 -2.04188,-3.64389 l -4.80443,0.37695 -4.14382,0.18848 c 0,0 0.66061,-0.31412 0.48044,-1.00522 -0.18016,-0.69107 -4.26392,-0.43977 -4.26392,-0.43977 0,0 0.54049,3.4554 0.72067,3.4554 0.18015,0 2.70247,2.19892 2.70247,2.19892 l 3.72345,0.81674 1.50136,5.46583 1.98183,1.88477 0.66063,6.72236 -2.10194,-4.71194 -3.84355,-2.19889 c 0,0 -4.50415,-1.44498 -5.04465,-0.37695 -0.54051,1.06803 -3.96367,5.84279 -3.96367,5.84279 l 0.18018,4.27216 5.40498,-0.56545 c 0,0 0.96088,4.96324 1.26116,4.96324 0.30028,0 4.92454,2.26173 4.92454,2.26173 l -3.06282,-0.62826 -3.48322,0.75392 0.24023,2.63868 -4.38404,-0.31414 -3.60332,3.01564 -5.34494,0.31413 -6.72619,1.50782 3.3631,7.41343 8.16752,7.79039 3.60333,4.39782 c 0,0 13.33228,-1.88478 14.05295,-1.75913 0.72066,0.12565 25.7037,-1.13087 25.7037,-1.13087 l 11.77084,1.88479 5.76533,1.13086 8.28764,-3.76954 c 0,0 -3.3631,-6.40824 -2.52232,-6.91085 0.84077,-0.5026 7.08653,-9.29821 7.08653,-9.29821 l 7.32674,-8.04169 9.12842,-11.30863 6.36588,-13.06776 -1.44134,-11.55994 -5.04464,-12.56516 3.72342,-1.50782 c 0,0 7.44688,-9.54952 8.04743,-10.17776 0.60056,-0.62827 12.13117,-9.80082 12.13117,-9.80082 l 2.40222,-4.52347 5.40499,-1.50781 z"
       id="path3840"
       inkscape:connector-curvature="0" />
    <path
       style="fill:none;stroke:#000000;stroke-width:1px;stroke-linecap:butt;stroke-linejoin:miter;stroke-opacity:1"
       d="m 520.80737,795.63776 2.63392,-1.01305 3.34305,6.3822 7.29394,7.39524 5.16654,4.86262 9.52264,-1.82348 25.42747,-1.11435 6.3822,-0.60783 11.65004,2.73523 -12.8657,10.63699 -20.36224,21.07137 -5.77437,10.63699 -13.37221,1.11436 -8.40829,0.60782 -6.4835,-1.01304 -12.66309,2.02609 -3.74827,-5.47045 -10.23177,1.11435 c 0,0 -2.43132,-4.05219 -2.83653,-4.05219 -0.40522,0 -3.24175,0.50653 -3.24175,0.50653 l -5.57176,2.83653 -0.91174,5.36914 -4.45741,-2.73522 -0.40522,-2.73523 -5.06523,2.73523 c 0,0 -5.67306,0.81044 -6.3822,0.60783 -0.70913,-0.20261 -3.34305,2.12739 -3.34305,2.12739 l -4.96393,2.22871 -3.95088,-2.73523 c 0,0 -4.86263,-2.33001 -5.16654,-2.53262 -0.30392,-0.20261 -4.86263,4.05219 -4.86263,4.05219 0,0 -3.44436,2.1274 -4.4574,2.2287 -1.01305,0.10131 -3.54567,-1.72218 -3.44436,-2.02609 0.1013,-0.30391 -2.22871,-2.63392 -2.73523,-2.63392 -0.50652,0 -1.51957,-1.51957 -0.81044,-1.92479 0.70914,-0.40522 4.76132,-5.47045 4.76132,-5.47045 l 0.91175,-5.67307 -3.64697,-3.44435 -0.50653,-5.47046 2.73523,-2.02609 2.1274,-8.6109 2.02609,-4.76132 -0.30391,-3.03914 -4.2548,-4.05219 -0.50652,-2.02609 -2.43131,0.50652 c 0,0 -1.11436,-3.54566 -1.01305,-5.06523 0.1013,-1.51957 4.55871,-5.47045 4.55871,-5.47045 0,0 2.53262,-1.72218 2.83653,-2.63393 0.30391,-0.91174 -1.51957,-11.44742 -1.51957,-11.44742 0,0 -1.51957,-1.41827 -1.01305,-1.82349 0.50653,-0.40522 3.44436,-4.05219 3.44436,-4.86262 0,-0.81044 0.81044,-6.88872 0.81044,-6.88872 0,0 -0.81044,-2.2287 1.11435,-1.21566 1.92479,1.01305 3.54567,2.93784 3.54567,2.93784 0,0 1.62087,0.50652 2.12739,0.70913 0.50653,0.20261 1.82349,1.21566 2.1274,1.21566 0.30392,0 2.43131,1.11435 2.43131,1.11435 l -2.2287,4.05219 5.47045,0.81043 0.40522,1.92479 2.63392,0.91174 1.21566,1.82349 0.40522,3.34305 1.51957,1.62088 c 0,0 1.21566,0 1.11435,1.31696 -0.1013,1.31696 0.10131,6.4835 0.10131,6.4835 v 5.16654 l 1.21565,3.24175 3.54567,-0.50653 c 0,0 2.12739,-0.60782 2.43131,-0.60782 0.30391,0 5.87567,2.93783 5.87567,2.93783 0,0 3.64697,-1.62087 5.16654,-1.11435 1.51957,0.50652 3.64697,1.21566 3.64697,1.21566 0,0 -0.50653,-5.57176 -0.10131,-6.07828 0.40522,-0.50653 5.06524,-3.95089 5.06524,-3.95089 0,0 4.66001,0.81044 5.26784,0.40522 0.60783,-0.40522 3.64697,-5.26784 4.2548,-5.26784 0.60782,0 3.14044,-2.33001 3.95088,-1.92479 0.81044,0.40522 6.38219,3.03914 6.38219,3.03914 l 2.83654,0.91174 z"
       id="path3842"
       inkscape:connector-curvature="0" />
    <path
       style="fill:none;stroke:#000000;stroke-width:1px;stroke-linecap:butt;stroke-linejoin:miter;stroke-opacity:1"
       d="m 573.38449,834.84267 14.9931,-13.37222 24.31312,-16.61396 0.81044,-6.07828 21.88181,-30.79663 4.05219,-15.39831 -3.64697,-13.77744 9.72525,-14.18265 29.17575,-22.28703 25.12356,-24.31312 18.64006,-15.80353 16.61397,-10.94091 14.58787,-3.64697 18.64006,-8.50959 20.26094,-13.37222 25.934,-7.29394 26.74443,-15.80353 15.39831,-42.54796 7.69916,-13.37222 10.9409,12.15656 41.33231,6.4835 26.74444,7.29394 27.96009,-10.13047 29.98622,-3.64697 24.7183,-1.62087 c 0,0 15.8035,-1.62088 17.0192,-0.81044 1.2157,0.81044 6.8887,19.4505 6.8887,19.4505 l 23.0975,-6.07828 24.7183,24.71834 20.6662,12.967 17.4244,2.02609 c 0,0 35.6592,40.11666 36.8749,42.14275 1.2156,2.02609 23.0975,25.934 23.0975,25.934 l 42.9531,4.86262 62.8089,-8.10437 c 0,0 73.3446,-5.26785 74.9655,-6.07828 1.6209,-0.81044 66.4559,-41.33231 66.4559,-41.33231 l 26.3392,-20.26094 2.4313,-9.72525 12.967,-8.10437 11.3461,4.86262 12.1566,0.81044 2.4313,16.20875 10.5357,25.12356 25.934,4.05219 9.3217,4.82404 19.7707,3.4384 9.4556,7.16332 2.2923,11.17478 -18.9112,4.87106 -22.3496,13.18052 -9.4555,11.74785 1.1461,6.87679 -7.7364,12.32091 -3.4384,9.16905 -51.0029,1.7192 h -14.6131 l -1.7192,3.4384 -22.6361,4.29799 -10.8883,8.88252 0.2865,6.01719 -28.9398,7.73639 -28.6533,29.79942 -29.2263,27.79369 -11.7479,18.05158 -16.9054,16.04584 -10.6017,21.7765 -48.4241,8.59599 -47.5645,0.57306 -43.553,16.61891 -24.6418,20.63037 -11.4613,37.82235 -37.2493,23.49569 -60.1719,16.61891 -22.5646,8.80051 -14.58784,-3.2418 -23.50268,-3.24174 -5.67307,3.24174 -8.91481,-1.21564 -9.72525,-2.83654 -30.3914,-12.56178 -29.98619,-15.80353 -21.88181,-4.86262 -19.85572,-4.86263 -21.88181,-1.62087 -9.32003,4.05219 -14.99309,-6.07828 -27.96009,-23.90791 -20.66616,-19.4505 -17.82962,-15.80353 -27.14966,-20.26093 -17.01918,-10.94091 -8.5096,-3.64697 c 0,0 -16.35524,-14.75537 -17.7879,-14.46884 -1.43266,0.28654 -18.91117,-2.29226 -18.91117,-2.29226 l -6.87679,3.15186 -2.5788,6.01719 v 5.44413 l -12.89398,-1.14613 -15.47278,2.00573 c 0,0 -4.29799,2.00573 -5.15759,3.43839 -0.8596,1.43267 -8.59598,-1.14613 -8.59598,-1.14613 l -5.73066,-6.87679 -4.298,-7.73639 -16.61891,7.16333 z"
       id="path3844"
       inkscape:connector-curvature="0" />
    <path
       style="fill:none;stroke:#000000;stroke-width:1px;stroke-linecap:butt;stroke-linejoin:miter;stroke-opacity:1"
       d="m 580.27321,351.82195 16.61397,10.53569 14.58787,-17.82962 7.29394,2.02609 4.45741,11.34612 -0.81044,21.4766 4.86262,5.26784 17.01919,-19.4505 8.91481,-14.58787 -14.58787,12.15656 -6.07828,-1.62088 11.75134,-15.39831 13.77744,-7.29394 -1.21566,-24.71834 -9.72525,1.21566 -5.26784,12.56178 -8.50959,-2.83653 12.56178,-12.967 -1.62088,-8.91481 -10.9409,-0.81044 -17.82963,-2.43131 -5.26784,-12.967 1.21565,-15.80353 -12.96699,-13.37222 9.32003,-5.26784 6.4835,12.967 9.72525,10.53568 c 0,0 10.13046,6.88872 12.56178,6.88872 2.43131,0 8.10437,-8.91481 8.10437,-8.91481 l 8.10437,-4.45741 -13.37221,-7.29393 c 0,0 -6.07828,-1.21566 -3.24175,-3.64697 2.83653,-2.43131 8.10437,-5.26785 12.15656,-6.07828 4.05219,-0.81044 7.69915,-8.10438 8.10437,-9.72525 0.40522,-1.62088 6.4835,-12.56178 6.4835,-12.56178 l 1.21566,-11.75135 -4.05219,-6.88871 c 0,0 -10.53569,-1.62088 -15.39831,-1.62088 -4.86262,0 8.10437,-12.15656 8.10437,-12.15656 l -24.31312,6.4835 -8.50959,-4.86263 12.56178,-1.62087 25.52878,-5.67306 -1.62088,-10.94091 -10.9409,-1.21565 -21.47659,3.64696 3.64696,-14.58787 8.5096,-7.29394 -11.34613,0.81044 c 0,0 -5.26784,9.32003 -5.67306,10.94091 -0.40522,1.62087 -10.94091,1.62087 -10.94091,1.62087 0,0 0.81044,-14.18265 -0.40521,-15.80353 -1.21566,-1.62087 0,-6.07828 1.21565,-8.10437 1.21566,-2.0261 2.43131,-5.26785 2.43131,-5.26785 l -2.43131,-16.20875 c 0,0 -8.91481,-4.05218 -12.15656,-4.4574 -3.24175,-0.40522 -13.77744,0.40522 -15.80353,-1.62088 -2.02609,-2.02609 -1.21566,-12.56178 -1.21566,-12.56178 0,0 0.40522,-4.86262 -3.24175,-5.26784 -3.64696,-0.40522 -14.58787,1.21565 -14.58787,1.21565 l 1.21566,-10.535682 -14.58788,6.483502 -1.21565,-9.320033 c 0,0 4.86262,-6.078281 4.86262,-8.509593 0,-2.431313 2.83653,-5.267844 -1.62087,-3.646969 -4.45741,1.620875 -6.88872,4.052187 -8.10438,2.026094 -1.21565,-2.026094 -1.21565,-6.888719 -1.21565,-6.888719 0,0 -2.43132,-6.07828 -4.86263,-7.293937 -2.43131,-1.215656 -8.50959,-3.646968 -7.29394,-7.699155 1.21566,-4.052188 0.81044,-15.398312 0.81044,-15.398312 l -6.07828,-7.699156 v 10.130468 c 0,0 -8.50959,8.104375 -9.72525,6.888719 -1.21566,-1.215656 -4.86262,-13.372218 -4.86262,-13.372218 l -5.67307,-2.431312 -5.26784,7.293937 c 0,0 -5.26784,3.646968 -8.50959,3.646968 -3.24175,0 -6.88872,-3.24175 -7.29394,-5.673062 -0.40522,-2.431312 -5.26784,-0.810438 -8.10437,-2.836531 -2.83654,-2.026094 -12.15657,-10.535687 -12.15657,-10.535687 l -1.62087,9.725249 -6.07828,4.457406 -5.67306,-1.215656 -12.15657,1.620875 2.0261,10.535687 c 0,0 6.07828,-1.215656 7.29394,0.405219 1.21565,1.620875 2.43131,7.699155 2.43131,9.725249 0,2.026094 -7.29394,5.673062 -7.29394,5.673062 l -9.32003,-3.646968 -5.26784,-2.431313 4.05218,9.72525 17.01919,10.130468 c 0,0 10.13047,-1.215656 11.34612,-3.24175 1.21566,-2.026094 7.69916,-11.751343 7.69916,-11.751343 0,0 10.94091,-9.725249 11.34612,-6.888718 0.40522,2.836531 -3.24175,5.673062 -4.86262,9.32003 -1.62088,3.646969 0.81044,7.699156 0.81044,7.699156 0,0 6.07828,-7.293937 8.91481,-9.320031 2.83653,-2.026093 8.50959,-7.699155 8.50959,-7.699155 l 10.53569,8.104374 c 0,0 -8.91481,9.320031 -10.94091,10.130468 -2.02609,0.810438 -3.24175,9.72525 2.83653,7.699156 6.07829,-2.026094 10.94091,-6.4835 13.37222,-7.699156 2.43131,-1.215656 9.72525,-3.646968 9.72525,-3.646968 0,0 3.24175,4.457406 4.45741,7.293937 1.21565,2.836531 -4.86263,5.267843 -8.5096,8.104374 -3.64696,2.836531 4.45741,4.457406 6.07829,4.862625 1.62087,0.405219 15.80353,-5.673062 16.20874,-3.646969 0.40522,2.026094 -8.50959,8.50959 -8.50959,8.50959 l -14.58787,2.43132 -1.62088,9.72525 -9.32003,-4.86263 c 0,0 -3.24175,-3.64697 -6.4835,-4.86262 -3.24175,-1.21566 -17.01918,-4.45741 -17.01918,-4.45741 0,0 -1.21566,-5.267843 -7.29394,-3.646968 -6.07828,1.620874 -6.4835,2.431308 -6.88872,4.457408 -0.40522,2.02609 -2.83653,3.64697 -2.83653,3.64697 0,0 -4.05219,-2.0261 -3.24175,-0.81044 0.81044,1.21565 -7.29394,3.24175 -7.29394,3.24175 l 2.43131,10.9409 24.31313,20.66616 16.61397,7.29394 18.23484,5.26784 10.13047,-2.02609 c 0,0 6.4835,4.05218 6.07828,6.4835 -0.40522,2.43131 -7.69916,4.86262 -7.69916,4.86262 l -11.75134,9.72525 10.9409,14.99309 6.07829,18.23484 c 0,0 7.69915,6.88872 4.86262,9.32004 -2.83653,2.43131 -8.50959,1.21565 -8.50959,1.21565 l -2.83653,12.56178 c 0,0 -12.56178,13.37222 -12.967,14.58788 -0.40522,1.21565 -9.72525,7.29393 -9.72525,7.29393 0,0 -7.29394,-6.07828 -5.26785,-5.26784 2.0261,0.81044 15.80353,-7.29394 15.80353,-7.29394 l 7.29394,-19.04528 -4.86262,-16.20875 -3.24175,-15.80353 -14.58788,46.60016 -5.26784,4.4574 -2.02609,-10.9409 8.50959,-25.12356 -1.62088,-24.31313 -15.39831,-14.58787 -1.21565,11.75134 -4.05219,29.58097 -9.32003,10.53569 -2.83653,-5.67307 8.91481,-26.74443 -4.86263,-5.26785 -4.86262,19.4505 -11.34612,8.91481 3.64696,-14.99309 v -16.61397 l -12.967,10.94091 c 0,0 -12.15656,6.4835 -11.34612,4.86262 0.81044,-1.62087 11.75134,-17.01918 13.37222,-18.23484 1.62087,-1.21565 6.07828,-17.4244 6.07828,-17.4244 l -12.967,-4.86263 -8.91481,13.77744 1.21565,-9.72525 6.07828,-10.94091 -14.18265,-9.32003 -8.50959,-11.75134 -17.42441,-6.4835 -10.9409,5.67306 c 0,0 -8.10438,0.81044 -8.5096,2.43131 -0.40522,1.62088 17.01919,11.75135 17.01919,11.75135 l 12.56178,18.23484 -2.43131,3.64697 -14.58788,-14.58787 -7.69915,-7.29394 -6.07828,3.64697 -10.94091,-0.81044 11.34613,12.15656 14.18265,13.37222 2.83653,7.29394 -12.15656,-3.64697 -23.50269,-13.77744 h -10.53568 l -6.4835,12.56178 23.50268,26.33922 18.23485,13.77743 19.45049,12.15657 -7.69915,4.4574 -23.09747,-8.10437 -13.37222,-10.94091 -13.37221,-3.64697 -7.29394,2.43132 -1.21566,23.09746 18.64006,19.4505 25.12356,2.43131 c 0,0 21.07138,-0.81043 24.71835,-1.21565 3.64697,-0.40522 17.82962,-0.40522 17.82962,-0.40522 l -6.88872,8.50959 -15.80353,2.83653 -25.934,3.64697 6.4835,13.37222 h 26.74444 l -1.62088,8.10437 -17.82962,-0.81043 5.67306,11.75134 -6.07828,3.64697 -6.88872,-8.10438 -10.13046,6.88872 -3.64697,-4.86262 2.43131,-8.5096 -8.50959,-15.80353 c 0,0 -15.80353,-6.88871 -15.80353,-8.50959 0,-1.62087 -23.09747,-18.23484 -23.09747,-18.23484 l -10.94091,-0.81044 -10.9409,-8.50959 3.64697,27.55487 19.85571,18.64006 11.75135,10.53569 -4.45741,8.50959 -10.13047,-10.9409 -15.80353,-3.24175 0.40522,14.18265 21.47659,16.20875 v 14.58788 l -12.967,-12.56178 -16.20874,-12.15657 -30.39141,-23.9079 -8.10437,12.15656 0.81043,13.37222 -10.53568,4.4574 -6.07828,3.64697 -10.13047,9.72525 14.58787,2.43131 c 0,0 12.56178,3.64697 12.56178,2.43132 0,-1.21566 8.10438,-4.86263 8.10438,-4.86263 l 16.20875,5.26785 c 0,0 12.56178,2.83653 12.967,4.4574 0.40521,1.62088 10.53568,9.32003 11.34612,10.94091 0.81044,1.62087 2.43131,14.99309 2.43131,14.99309 l 29.17575,-1.62087 12.967,-16.61397 c 0,0 16.61397,-4.45741 19.85572,-4.05219 3.24175,0.40522 21.88181,-3.64697 21.88181,-3.64697 l 12.967,6.07828 4.86262,-17.82962 10.94091,-14.99309 c 0,0 -4.86263,12.56178 -3.64697,12.56178 1.21565,0 12.15656,2.43131 12.15656,2.43131 0,0 8.91481,3.64697 9.72525,0.81044 0.81044,-2.83653 5.26784,-14.18266 5.26784,-14.18266 0,0 6.88872,5.67306 6.88872,6.88872 0,1.21566 2.83653,-10.53569 2.83653,-10.53569 h 12.967 l -10.9409,17.01919 14.99309,15.39831 4.4574,-5.67306 -3.24174,-29.58097 c 0,0 9.32003,-4.4574 9.72524,-2.02609 0.40522,2.43131 -0.40521,28.77053 -0.40521,28.77053 l 6.07828,1.62087 2.43131,-21.07137 c 0,0 7.29394,-4.45741 8.50959,-4.45741 1.21566,0 5.26785,16.61397 5.26785,16.61397 l -2.43132,14.99309 c 0,0 10.53569,0 12.15656,-0.40522 1.62088,-0.40521 10.53569,-6.88871 10.53569,-6.88871 l 8.91481,-7.29394 -2.83653,10.13047 9.72525,-1.62088 10.13047,-15.80353 c 0,0 4.05219,6.4835 4.45741,9.32003 0.40521,2.83653 -14.18266,13.37222 -14.18266,13.37222 l -19.85572,2.83653 13.37222,23.50269 12.56178,-4.86263 6.88872,-16.61397 2.83653,-10.53568 3.24175,13.37222 6.07828,5.26784 c 0,0 -0.40522,-9.32003 4.05219,-9.72525 4.4574,-0.40522 6.88872,11.75134 6.88872,11.75134 z"
       id="path3846"
       inkscape:connector-curvature="0" />
    <path
       style="fill:none;stroke:#000000;stroke-width:1px;stroke-linecap:butt;stroke-linejoin:miter;stroke-opacity:1"
       d="m 658.48043,352.835 -12.15656,17.2218 -6.99003,8.40828 0.40522,12.56178 12.15656,21.27399 9.62395,19.95702 2.53261,16.10744 2.42336,10.28808 -1.57593,12.03438 6.87679,22.92263 15.27195,11.78945 15.39831,6.28089 19.24789,9.11742 19.04528,2.43131 13.98004,-6.07828 16.81658,-2.2287 21.88181,4.4574 c 0,0 22.08442,0.81044 23.09747,0.81044 1.01305,0 38.49578,4.2548 38.49578,4.2548 l 9.74481,-0.0324 4.29799,3.4384 c 0,0 0.57307,13.89684 1.2894,13.89684 0.71633,0 4.72779,7.44986 6.01719,8.02292 1.2894,0.57307 14.18338,6.44699 14.18338,6.44699 l 28.93982,4.44126 25.07163,2.72207 21.91977,-7.16333 26.50429,-4.01146 19.91401,-1.71919 32.808,0.57306 c 0,0 1.8625,-0.8596 3.4384,2.43553 1.576,3.29513 5.5874,11.46132 6.1605,11.60458 0.5731,0.14327 13.1805,0.57307 14.0401,0.4298 0.8596,-0.14326 9.0258,-1.14613 10.4585,-2.00573 1.4326,-0.8596 6.3037,-7.59312 5.8739,-9.59885 -0.4298,-2.00573 -2.0057,-16.90544 -0.7163,-18.33811 1.2894,-1.43266 10.4584,-11.31804 10.7449,-12.32091 0.2866,-1.00287 6.8768,-12.32092 6.8768,-12.32092 l -4.7278,-9.31231 -16.7621,-8.73926 c 0,0 -2.8654,-8.02292 -4.0115,-9.74212 -1.1461,-1.71919 -4.7278,-12.46418 -4.7278,-12.46418 l -18.7679,-13.32378 -6.5903,-11.46132 c 0,0 -3.2951,-4.87105 -5.0143,-6.16045 -1.7192,-1.2894 -10.8882,-10.74499 -10.8882,-10.74499 l -4.7278,-12.89398 -3.4384,-10.02865 -16.6189,-17.19197 -6.30375,-13.18052 -5.73066,-18.91117 6.87681,-10.31518 c 0,0 -12.0344,-10.31519 -13.7536,-10.31519 -1.7192,0 -9.16905,-4.58452 -9.74212,-7.44985 -0.57307,-2.86533 -4.01146,-11.46132 -4.01146,-11.46132 l 9.74212,-8.59599 -0.57307,-13.75358 8.59599,-6.87679 -6.87679,-26.93409 -12.03438,-7.44986 -11.46132,-18.3381 10.31519,-5.15759 9.16905,-6.59026 -1.7192,-11.17478 c 0,0 -4.29799,-8.30946 -4.87106,-10.31519 -0.57306,-2.00573 1.43267,-22.34957 1.43267,-22.34957 l -22.92263,-32.37821 v 14.32664 l -6.87679,5.15759 -10.31519,0.8596 c 0,0 -21.20343,0 -21.48997,2.00573 -0.28653,2.00573 -6.30372,4.298 -6.30372,4.298 l 4.58453,15.47277 0.85959,10.02865 -12.60744,2.86533 -0.57307,8.30946 6.01719,-1.43267 1.7192,12.89398 6.01719,7.44986 2.86533,14.61318 -2.86533,8.30945 3.72493,7.44986 -4.298,3.15186 -3.43839,9.45559 -7.16332,-0.8596 -6.01719,-8.30946 -5.1576,8.30946 -10.31518,-0.57307 -1.43267,-15.75931 -6.30372,-24.92836 -16.33238,-8.30946 -4.01146,4.01146 -4.29799,-14.89971 -5.15759,-14.89971 -7.16333,-9.45558 -1.71919,-13.18052 -4.01146,-4.01146 -0.8596,-8.59599 -6.30373,-0.28653 -2.29226,-9.45558 -11.17478,4.58452 -8.59599,6.59026 c 0,0 -8.59599,-4.58453 -10.02865,-2.5788 -1.43267,2.00573 -3.15186,10.31519 -3.15186,10.31519 l -6.59026,-9.16906 -2.00573,22.06304 2.00573,20.63037 c 0,0 4.01146,9.16905 4.87106,9.45558 0.8596,0.28654 6.87679,28.08023 6.87679,28.08023 l -1.43267,3.15186 6.59026,15.47278 1.14613,10.88825 -2.57879,14.04011 -8.02292,21.48997 -16.33238,9.45559 -19.48424,3.15186 -6.01719,-4.87106 4.87106,-14.89971 -1.43266,-10.31519 h -9.74212 c 0,0 -9.16906,7.16332 -9.16906,8.59599 0,1.43266 -21.48996,18.33811 -21.48996,18.33811 0,0 -8.30946,19.77077 -8.59599,21.20343 -0.28653,1.43266 -4.87106,15.75931 -3.72493,18.33811 1.14613,2.57879 12.32092,29.22635 12.32092,29.22635 l -1.7192,8.59599 -6.87679,-3.43839 -5.44413,-18.33811 -4.29799,-14.32665 -6.59026,3.15187 0.57307,20.63037 0.28653,23.20916 -2.86533,8.59599 5.15759,20.0573 -1.43266,16.90544 -5.15759,0.8596 1.43266,-18.3381 c 0,0 -9.45558,-21.77651 -9.45558,-23.78224 0,-2.00573 0,-13.75358 0.28653,-16.33237 0.28653,-2.5788 -5.15759,-33.52435 -5.15759,-33.52435 z"
       id="path3848"
       inkscape:connector-curvature="0" />
    <path
       style="fill:none;stroke:#000000;stroke-width:1px;stroke-linecap:butt;stroke-linejoin:miter;stroke-opacity:1"
       d="m 957.73446,145.56562 11.95395,15.39831 c 0,0 9.01611,11.34613 9.32003,11.34613 0.30391,0 3.14044,13.37221 3.14044,13.37221 0,0 -1.21565,15.90484 -1.21565,16.31006 0,0.40522 4.86262,12.15656 5.06523,12.56178 0.20261,0.40522 0.40522,12.25787 -1.41826,15.80353 -1.82349,3.54566 -10.53569,1.92479 -11.85265,3.34305 -1.31696,1.41827 -1.62088,9.42134 -1.62088,9.42134 0,0 2.1274,4.05219 4.86263,5.47045 2.73522,1.41827 13.0683,6.58481 13.47352,8.7122 0.40522,2.1274 6.5848,23.8066 6.5848,23.8066 l 0.20261,14.89179 c 0,0 -5.67306,0.70914 -6.28089,1.21566 -0.60782,0.50652 -3.64697,22.59094 -3.64697,22.59094 l 5.06524,11.34613 18.03219,9.72525 -3.0391,12.15656 V 365.802 l 2.4313,10.9409 8.5096,15.39832 13.9801,8.50959 3.2417,16.00614 2.8365,10.13047 16.0062,8.50959 -0.2026,11.95395 20.2609,15.1957 5.8757,9.11743 5.0652,9.52264 2.2287,7.49654 9.7253,4.66002 10.333,7.69915 3.0392,11.14352 -6.6861,10.9409 -9.1175,16.41136 -1.013,12.967 -3.0391,11.34613 -4.4574,7.49654 10.333,13.77744 7.294,8.50959 16.2087,4.45741 13.1696,0.60783 15.1957,16.81657 7.0914,6.28089 11.5487,12.56178 c 0,0 7.9018,7.29394 8.5096,8.71221 0.6078,1.41826 11.1435,13.77743 11.1435,13.77743 l 9.1174,10.53569 9.5227,7.29394 18.4374,-0.60783 15.6009,-3.24175 18.8427,-0.40522 12.7644,-2.02609 12.967,-0.40522 0.4052,-19.4505 -1.8235,-26.74444 1.4183,-25.73139 1.8235,-21.6792 1.2156,-21.47659 1.8235,-11.95395 1.0131,-18.23485 10.333,-4.4574 13.9801,-8.10438 c 0,0 5.2678,-9.92785 6.2809,-9.92785 1.013,0 8.9148,-7.69916 8.9148,-7.69916 0,0 9.1174,-1.21566 9.1174,-2.43131 0,-1.21566 2.4313,-26.74444 2.4313,-26.74444 l -1.6209,-21.6792 6.6862,-18.43745 9.7252,-12.76439 7.6992,-12.15656 0.6078,-9.52264 -11.5487,-10.33308 -8.9149,-7.09133 2.8663,-16.20071 -2.8653,-8.59598 15.4728,-22.92264 1.1461,-10.88825 42.4069,4.58453 -1.1461,-42.40687 5.1575,-22.34957 28.0803,-3.43839 10.3152,-22.34957 12.0343,-13.75358 c 0,0 22.3496,-8.59599 25.2149,-8.02292 2.8654,0.57307 22.3496,0 22.3496,0 l 13.7536,-10.88825 12.0344,-12.03438 9.169,-2.86533 -12.0344,-21.20344 -4.0114,-4.58452 -11.4613,13.75358 -13.7536,1.14613 -14.3267,-2.86533 c 0,0 -11.4613,-2.29226 -8.596,-3.4384 2.8654,-1.14613 5.7307,-14.32664 5.7307,-14.32664 h -14.3266 l 1.7192,-13.18052 14.3266,-7.44985 13.1805,-16.04584 -7.4498,-14.326649 20.6303,-16.618909 8.596,-14.326645 -13.1805,-8.022921 -12.6074,-0.573066 -3.4384,10.88825 -10.3152,14.899712 -9.7421,15.472777 -22.9227,0.573065 -8.596,11.461316 8.596,14.32665 -5.1576,18.91117 -13.1805,-19.48424 -14.3266,-6.30372 -21.7765,-3.4384 -2.2923,-14.32664 2.2923,-21.776505 c 0,0 -4.0115,-22.922633 -7.4499,-21.776501 -3.4384,1.146132 -10.3152,2.865329 -13.1805,1.146132 -2.8653,-1.719198 -14.8997,-12.034382 -15.4728,-13.75358 -0.573,-1.719197 6.8768,-11.461316 6.8768,-11.461316 0,0 -12.0344,-5.157593 -15.4728,-6.87679 -3.4384,-1.719197 -34.3839,4.584527 -34.3839,4.584527 l -10.3152,9.169053 c 0,0 -2.2923,-10.315185 -9.1691,-10.888251 -6.8767,-0.573066 -14.8997,0 -14.8997,1.719198 0,1.719197 5.7307,11.461316 8.023,15.472777 2.2922,4.01146 2.2922,8.022921 1.7192,17.76504 -0.5731,9.742119 12.0343,33.810883 12.0343,33.810883 l -1.7192,27.507163 -41.8338,20.63037 -28.0802,2.29226 -6.8768,-17.76504 c 0,0 -16.0458,-4.58453 -17.765,-1.7192 -1.7192,2.86533 -6.3037,9.74212 -6.3037,13.75358 0,4.01146 -10.3152,18.91117 -10.3152,18.91117 l -2.2923,16.04585 -10.3152,14.89971 -32.0917,4.01146 -1.7192,-13.18052 -13.7535,-14.32664 -15.4728,-13.75358 -9.1691,-4.01146 c 0,0 -9.169,-8.59599 -13.7535,-8.02292 -4.5846,0.57306 -22.3496,-1.14614 -22.3496,-1.14614 l -6.3037,10.88826 2.8653,36.10314 15.4728,28.08023 13.1805,28.08022 8.596,49.85673 -14.8997,2.29226 -8.023,-19.48424 -2.2922,-26.93409 -8.0229,-26.93409 -21.2035,-10.88825 c 0,0 -16.6189,4.58452 -17.192,0 -0.573,-4.58453 -2.8653,-21.77651 -3.4384,-25.78797 -0.573,-4.01146 0.5731,-26.93409 0.5731,-26.93409 l -12.0344,13.18051 c 0,0 0,-6.30372 0,-9.74211 0,-3.4384 5.1576,-7.44986 5.1576,-7.44986 0,0 -7.4498,-14.89971 -9.7421,-14.32665 -2.2923,0.57307 -14.32664,9.74212 -14.32664,9.74212 l 4.58452,-13.75358 -8.02292,-2.29226 -6.87679,16.04584 -2.29226,-7.44985 -12.03438,-1.14613 z"
       id="path3850"
       inkscape:connector-curvature="0" />
    <path
       style="fill:none;stroke:#000000;stroke-width:1px;stroke-linecap:butt;stroke-linejoin:miter;stroke-opacity:1"
       d="m 1540.8442,187.70837 -8.7122,-0.81044 -7.6992,6.88872 -7.9017,12.967 -11.1435,5.06523 -16.2088,1.62088 -17.0192,1.62087 -12.3591,5.26785 c 0,0 -8.9149,10.53568 -9.5227,11.34612 -0.6078,0.81044 -6.6861,11.14352 -6.6861,11.14352 l -7.2939,11.95395 -12.7644,3.64697 -11.1435,4.86262 0.2026,23.90791 c 0,0 0,26.74443 0,27.35226 0,0.60783 -1.8235,12.35917 -1.8235,12.35917 0,0 -28.7705,-0.20261 -30.594,0.40522 -1.8235,0.60783 -15.1957,3.44436 -15.1957,3.44436 l -8.307,19.4505 -1.2157,15.1957 16.4114,20.66615 2.4313,9.92786 -20.0583,29.37836 -2.6339,30.39141 v 28.77052 l -9.7253,11.75135 -40.7245,35.45664 c 0,0 -6.2809,18.23484 -6.0783,19.45049 0.2027,1.21566 -0.6078,32.01228 -0.6078,32.01228 v 32.21489 l 0.6078,44.57406 0.8105,5.87567 43.561,-2.43131 32.8227,-4.66001 40.1167,-21.88182 46.8027,-30.99923 6.2809,-21.27398 25.5288,-3.84958 c 0,0 19.0453,7.29394 20.0583,7.29394 1.0131,0 5.4705,10.13047 5.4705,10.13047 l 3.2417,19.4505 10.3331,13.1696 24.3131,2.63393 28.3653,9.92785 8.1044,4.66002 c 0,0 2.0261,-7.49655 2.0261,-8.50959 0,-1.01305 -3.647,-12.76439 -3.647,-12.76439 0,0 -5.673,0.60782 -6.4835,0.81043 -0.8104,0.20261 -2.4313,-2.02609 -3.2417,-3.64696 -0.8105,-1.62088 0.4052,-16.00614 0.4052,-16.00614 0,0 10.5357,2.43131 12.3592,2.43131 1.8235,0 8.9148,1.62087 7.9017,-4.05219 -1.013,-5.67306 -6.4835,-10.53569 -6.4835,-10.53569 0,0 -7.6991,-3.64696 -7.4965,-4.86262 0.2026,-1.21566 9.7252,-4.2548 10.9409,-4.05219 1.2157,0.20261 18.4375,-0.20261 18.4375,-0.20261 h 6.0782 l -9.32,-6.4835 c 0,0 -10.1305,-8.30698 -12.1566,-9.72525 -2.0261,-1.41826 -6.4835,-10.73829 -8.5096,-11.14351 -2.026,-0.40522 -6.0782,-8.91481 -6.0782,-9.52264 0,-0.60783 1.4182,-5.87567 2.2287,-5.47045 0.8104,0.40522 9.7252,8.50959 11.3461,10.13046 1.6209,1.62088 7.2939,11.95396 8.5096,12.56179 1.2156,0.60782 10.9409,6.48349 13.7774,7.69915 2.8366,1.21566 6.6861,-1.01305 13.7775,-2.43131 7.0913,-1.41827 13.1696,-7.49655 13.7774,-8.50959 0.6078,-1.01305 -2.0261,-8.10438 -3.2418,-11.75135 -1.2156,-3.64697 -1.8234,-15.1957 0,-15.80353 1.8235,-0.60783 17.2218,-0.60783 19.6532,-0.60783 2.4313,0 0.6078,-1.82348 -2.634,-2.83653 -3.2417,-1.01304 -8.9148,-7.29393 -8.9148,-7.29393 0,0 16.614,2.02609 17.627,2.43131 1.0131,0.40522 7.6992,-5.47045 7.6992,-6.4835 0,-1.01305 0.2026,-6.4835 0.2026,-6.4835 0,0 -13.98,-2.63392 -19.8557,-5.47045 -5.8757,-2.83653 -12.7644,-6.07828 -16.2088,-7.69916 -3.4443,-1.62087 14.1827,-3.03914 14.1827,-3.03914 l 23.5027,0.40522 c 0,0 7.9017,-4.86263 4.8626,-4.86263 -3.0391,0 -12.967,-3.24175 -14.9931,-5.06523 -2.0261,-1.82348 -12.7644,-13.98005 -14.1826,-16.61397 -1.4183,-2.63392 -7.4966,-0.60783 -16.2088,1.41827 -8.7122,2.02609 -20.6661,0.81044 -24.3131,-0.60783 -3.647,-1.41827 -10.7383,-5.47045 -3.647,-4.86262 7.0913,0.60782 29.7836,-7.90177 29.7836,-7.90177 l -3.2418,-8.10437 c 0,0 18.4375,7.49654 19.0453,7.49654 0.6078,0 7.0913,2.43131 10.7383,7.90177 3.647,5.47045 5.8757,8.30698 7.294,9.11742 1.4182,0.81044 14.993,-0.81044 16.0061,-0.81044 1.013,0 6.4835,-7.49655 6.4835,-7.49655 l -2.1156,-5.05983 14.6132,-8.02293 0.2866,-10.31518 c 0,0 -7.4499,2.00573 -6.8768,0 0.573,-2.00573 5.1576,-20.63037 5.1576,-20.63037 0,0 -0.5731,-6.59026 -4.5846,-0.28653 -4.0114,6.30372 -8.3094,21.7765 -8.3094,21.7765 0,0 -4.0115,1.14613 -4.298,0 -0.2865,-1.14613 0,-10.60172 0,-10.60172 l -8.8825,3.72493 5.1576,-5.44413 -10.3152,-1.43266 12.894,-3.72493 0.8596,-16.04584 -18.0516,3.15186 -30.659,5.44413 c 0,0 -9.4556,-0.8596 -4.5846,-2.29227 4.8711,-1.43266 30.086,-9.74212 30.086,-9.74212 l 18.0516,0.8596 6.8768,-20.0573 -12.0344,-6.59026 c 0,0 -3.725,2.29226 -8.596,1.7192 -4.8711,-0.57307 -22.0631,-1.14613 -22.0631,-1.14613 l -10.8882,10.60171 c 0,0 -4.8711,-8.30945 -2.2923,-8.59598 2.5788,-0.28654 17.192,-6.87679 17.192,-6.87679 l 16.6189,-2.00573 c 0,0 -10.0286,-8.88252 -11.1748,-9.16906 -1.1461,-0.28653 -10.6017,-8.02292 -6.8768,-8.88252 3.725,-0.85959 21.7765,-3.15186 22.9227,-2.29226 1.1461,0.8596 1.1461,-14.61318 1.1461,-14.61318 l 4.298,-3.43839 -2.8653,-7.16333 4.5845,-2.57879 -1.1461,-14.32665 -6.0172,-8.30945 -2.5788,3.15186 v -8.30945 l -15.1863,10.02865 -2.0057,-14.61318 -10.0286,0.28653 3.1518,-5.44412 c 0,0 -9.169,-4.87106 -10.3152,-5.15759 -1.1461,-0.28654 -15.1862,6.87679 -15.1862,6.87679 l -47.5645,-30.08596 4.5846,-24.06876 -14.8998,2.86532 -27.5071,11.46132 -19.7708,4.01146 c 0,0 -7.7364,-1.7192 -5.7306,-3.43839 2.0057,-1.7192 6.8767,-12.03439 6.8767,-12.03439 0,0 -7.4498,-5.15759 -8.0229,-6.01719 -0.573,-0.85959 5.4441,-12.89398 7.1633,-11.74785 1.7192,1.14614 10.8883,-1.14613 10.8883,-1.14613 l -2.5788,-4.58452 10.3152,-7.44986 z"
       id="path3852"
       inkscape:connector-curvature="0" />
  </g>
</svg>
