<svg id="Layer_1" data-name="Layer 1" xmlns="http://www.w3.org/2000/svg" viewBox="0 0 753 358"><defs><style>.cls-1{fill:#e0001b;}.cls-2{fill:#fff;}</style></defs><title>daelan</title><rect class="cls-1" width="753" height="358" rx="12" ry="12"/><path class="cls-2" d="M433.68,385.22c0,21.68-3.59,43-8.89,53.82-4.51,9.39-12.15,15.17-25.55,15.17H384.89c-.45,0-.81-.79-.81-1.76v-133c0-1,.36-1.76.81-1.76h15.44c7.32,0,16.67,1.8,23.53,14.45,5.61,10.48,9.82,28.9,9.82,53.09m29.76,60c3.43-18.06,5-38.28,5-58.15,0-37.92-5.3-60.32-7.64-69.71-15.27-61.76-45.62-60.32-57-60.32H366.73C355,257,349,281.07,349,303.84V465.15c0,22.78,6,46.84,17.73,46.84h42.8c10.59,0,21.5-1.81,33.34-16.26,12.62-15.17,17.77-35.75,20.57-50.56m80.36-34.51c0,.94-.35,1.71-.78,1.71H522.69c-.58,0-1-1.35-.69-2.48l20.28-89c.38-1.66,1.52-1.08,1.52.79Zm85.11,53.09h0v-4.14c0-2.22-.82-4-1.82-4H574c-.44,0-.8-.79-.8-1.76V414.13c0-1,.36-1.76.8-1.76h31.78c2.44,0,4.43-4.38,4.43-9.77V367c0-5.4-2-9.77-4.43-9.77H574c-.44,0-.8-.78-.8-1.76V315.17c0-1,.36-1.76.8-1.76h51.9c1,0,1.82-1.81,1.82-4V295.91c-.06-25.64-10.9-38.88-21.17-38.91h-69c-7.72,0-15.75,7.52-19.3,22.12h0l-54.51,227c-.64,2.68.24,5.91,1.61,5.91h21.83c7.77.06,14.63-12.8,18.12-28.54l3.9-17.12c.13-.57.4-.94.69-.94h34v7.46C543.8,498.67,554.7,512,565,512h46.17c11.7,0,17.73-24.07,17.73-46.84ZM791,412.38H768.22c-.53,0-.91-1.13-.74-2.23L778.76,333c.24-1.63,1.28-1.64,1.52,0l11.45,77.2c.16,1.1-.21,2.24-.74,2.24m53.17,94.05-41.91-224.1h0c-3.09-16.7-11.71-25.31-20-25.33h-5.78c-8.27,0-16.89,8.63-20,25.33L724.58,454.17h-37.4c-3.65,0-7.49-4.74-7.5-13.87V295.83c-.09-25.58-10.91-38.8-21.17-38.83h-12.1c-1,0-1.85,1.83-1.85,4.08l0,211.77c0,25.82,10.91,39.15,21.22,39.15h73.26c9,.47,16-16,18.6-34.64l1.57-10.78c.1-.7.4-1.18.74-1.18h39.38c.34,0,.64.48.74,1.18l1.59,10.73c2.64,18.62,9.64,35.16,18.61,34.69h22.18c1.3,0,2.18-2.9,1.69-5.56m126.37,1.43V295.17c0-20-9.07-38.17-19-38.17H937.33c-1,0-1.88,1.85-1.88,4.15V391.43c0,1.8-1.08,2.44-1.49.88L909.43,305.6c-9.31-34.47-22.59-48.6-42.62-48.6h-14.1c-1,0-1.86,1.87-1.86,4.15v211.7c0,25.82,10.9,39.15,21.21,39.15h12c1,0,1.85-1.8,1.87-4V370.38c0-1.75,1-2.43,1.47-1l27.28,92.51C927,503.28,939.63,512,955.07,512h13.58c1,0,1.88-1.86,1.88-4.14" transform="translate(-292 -202)"/></svg>