<svg xmlns="http://www.w3.org/2000/svg" id="Lager_1" data-name="Lager 1" viewBox="0 0 129.579 107.875"><defs><style>.cls-1{fill:#009147;}.cls-2{fill:#f5e723;}</style></defs><title>olis</title><path class="cls-1" d="M76.457,39.036c-2.652,0-5.3.018-7.954-.012-0.73-.008-1.074.173-1.07,0.921q0.03,6.532,0,13.065a0.653,0.653,0,0,0,.8.782c2.834-.166,5.671-0.053,8.506-0.062a1.215,1.215,0,0,0,1.189-.658q3.546-6.585,7.089-13.171c0.416-.775.342-0.865-0.608-0.865q-3.977,0-7.954,0m6.434,41.623c0-7-.011-13.992.016-20.988a0.8,0.8,0,0,0-1-.959q-6.8.034-13.594,0a0.849,0.849,0,0,0-1.057,1.01q0.036,20.814.018,41.629c0,1.253.031,1.284,1.324,1.284q6.474,0,12.947,0c1.343,0,1.347.007,1.347-1.246q0-10.365,0-20.728M46.568,70.752v30.58c0,1.142.021,1.153,1.247,1.152q6.568,0,13.137,0c1.38,0,1.375.007,1.375-1.3q0-30.624.017-61.247A0.836,0.836,0,0,0,61.3,38.925q-6.846.042-13.693,0c-0.792-.005-1.063.2-1.06,0.985q0.041,15.42.018,30.841m62.524-12.03q-6.848,0-13.7,0c-3.96,0-7.378,3.211-7.386,6.943q-0.014,6.842,0,13.682a5.706,5.706,0,0,0,3.143,5.183,15.743,15.743,0,0,0,7.528,1.783c3.143,0.094,6.292.034,9.438,0.011,0.712-.005,1.008.221,0.98,0.911a26.944,26.944,0,0,0,0,3.048c0.063,0.864-.287,1.093-1.161,1.086-4.133-.035-8.267-0.016-12.4-0.017-2.221,0-4.442.01-6.663-.009-0.6,0-.894.137-0.888,0.784,0.029,3.194.025,6.39,0.01,9.585a0.769,0.769,0,0,0,.93.941q13.648-.037,27.3-0.019a8.55,8.55,0,0,0,3.341-.591,7.138,7.138,0,0,0,4.753-6.942c0.025-4.154.014-8.308,0-12.462a7.117,7.117,0,0,0-2.809-5.906,8.67,8.67,0,0,0-5.5-1.705c-3.824,0-7.649-.014-11.474.009-0.785,0-1.122-.21-1.066-1,0.068-.954.017-1.916,0.016-2.875,0-1.057.087-1.146,1.2-1.146q9.209,0,18.415.006c1.148,0,1.212-.045,1.213-1.115,0.005-3.021,0-6.042,0-9.063,0-1.115.007-1.12-1.17-1.121q-7.033,0-14.066,0M5.231,80.583h0c0,4.85.073,9.7-.022,14.549a7.583,7.583,0,0,0,7.862,7.492q10.223,0.057,20.445-.005a7.513,7.513,0,0,0,7.724-7.443q0-14.2,0-28.4a10.717,10.717,0,0,0-.4-3.092,7.425,7.425,0,0,0-6.682-4.947q-10.917-.037-21.833,0c-3.639.013-7.1,3.355-7.1,6.778q0,7.536,0,15.072m113.243,27.292H10.752c0.374-.587-0.223-0.563-0.5-0.615a11.15,11.15,0,0,1-3.19-1.1c-4.356-2.313-7.039-5.65-7.041-10.534Q0.009,53.722,0,11.814A9.943,9.943,0,0,1,1.521,6.43,12.488,12.488,0,0,1,12.472.056Q64.606-.073,116.74.021a12.38,12.38,0,0,1,6.969,2.212,12.388,12.388,0,0,1,5.284,7.022c0.073,0.258.11,0.68,0.586,0.313v88.2c-0.5-.223-0.474.2-0.565,0.433-0.116.3-.149,0.623-0.272,0.917a12.927,12.927,0,0,1-9.76,8.128c-0.3.064-.848,0.062-0.508,0.632"/><path class="cls-2" d="M25.607,80.615c0-3.83-.012-7.659.01-11.489a0.784,0.784,0,0,0-1.014-.94,23.779,23.779,0,0,1-2.863,0,0.886,0.886,0,0,0-1.148,1.029q0.036,11.4,0,22.8a0.705,0.705,0,0,0,.864.824c1.047-.013,2.1-0.047,3.141.011,0.844,0.048,1.033-.276,1.026-1.016-0.034-3.742-.015-7.485-0.016-11.227M5.231,80.583q0-7.536,0-15.072c0-3.423,3.459-6.764,7.1-6.778q10.916-.041,21.833,0a7.425,7.425,0,0,1,6.682,4.947,10.756,10.756,0,0,1,.4,3.092q-0.017,14.2,0,28.4a7.512,7.512,0,0,1-7.723,7.443q-10.223.07-20.445,0a7.583,7.583,0,0,1-7.862-7.492c0.094-4.848.022-9.7,0.022-14.549h0Z"/><path class="cls-2" d="M109.092,58.723q7.033,0,14.066,0c1.177,0,1.171.006,1.17,1.121,0,3.021,0,6.042,0,9.063,0,1.069-.065,1.116-1.213,1.115q-9.207-.006-18.415-0.006c-1.114,0-1.2.089-1.2,1.146,0,0.958.052,1.92-.016,2.875-0.056.79,0.281,1.006,1.066,1,3.825-.023,7.65-0.01,11.474-0.01a8.665,8.665,0,0,1,5.5,1.706,7.115,7.115,0,0,1,2.809,5.906c0.01,4.153.021,8.308,0,12.461a7.138,7.138,0,0,1-4.753,6.943,8.568,8.568,0,0,1-3.341.59q-13.648,0-27.3.019a0.768,0.768,0,0,1-.93-0.94c0.015-3.2.019-6.391-.01-9.586-0.006-.646.286-0.788,0.888-0.783,2.221,0.018,4.442.008,6.663,0.009,4.133,0,8.267-.018,12.4.016,0.874,0.007,1.224-.222,1.161-1.085a26.969,26.969,0,0,1,0-3.049c0.028-.689-0.268-0.916-0.98-0.911-3.146.023-6.295,0.084-9.438-.01a15.742,15.742,0,0,1-7.528-1.783,5.707,5.707,0,0,1-3.143-5.184q-0.014-6.84,0-13.681A7.328,7.328,0,0,1,95.4,58.724q6.849,0,13.7,0"/><path class="cls-2" d="M46.568,70.752q0-15.421-.018-30.841c0-.788.269-0.99,1.061-0.985q6.846,0.04,13.692,0a0.835,0.835,0,0,1,1.041,1.009q-0.031,30.622-.017,61.247c0,1.309.005,1.3-1.374,1.3q-6.568,0-13.137,0c-1.227,0-1.248-.011-1.248-1.152V70.752"/><path class="cls-2" d="M82.891,80.659q0,10.364,0,20.727c0,1.254,0,1.248-1.346,1.247q-6.474,0-12.947,0c-1.294,0-1.324-.03-1.324-1.284q0-20.814-.018-41.628a0.848,0.848,0,0,1,1.056-1.01q6.8,0.034,13.6,0a0.8,0.8,0,0,1,1,.959c-0.027,7-.017,13.992-0.017,20.988"/><path class="cls-2" d="M76.457,39.036q3.978,0,7.955,0c0.95,0,1.024.091,0.608,0.866q-3.537,6.588-7.09,13.17a1.211,1.211,0,0,1-1.189.658c-2.835.009-5.672-.1-8.506,0.062a0.652,0.652,0,0,1-.8-0.781q0.022-6.532,0-13.066c0-.748.34-0.928,1.07-0.92,2.651,0.03,5.3.012,7.954,0.011"/><path class="cls-1" d="M25.608,80.615c0,3.742-.018,7.485.016,11.227,0.007,0.739-.182,1.063-1.026,1.016-1.044-.058-2.094-0.024-3.141-0.011a0.705,0.705,0,0,1-.864-0.824q0.03-11.4,0-22.8a0.886,0.886,0,0,1,1.148-1.029,23.782,23.782,0,0,0,2.863,0,0.784,0.784,0,0,1,1.014.94c-0.022,3.83-.01,7.659-0.01,11.489"/></svg>
